solid Untitled-5a076513
facet normal -1.0 0.0 0.0
  outer loop
    vertex 0.0 -24.328499857940145 20.86698905816772
    vertex 0.0 -14.861518681755635 24.612313097480964
    vertex 0.0 -15.332438010606412 20.698652447734506
  endloop
endfacet
facet normal -1.0 0.0 0.0
  outer loop
    vertex 0.0 -14.861518681755635 24.612313097480964
    vertex 0.0 -24.328499857940145 20.86698905816772
    vertex 0.0 -12.280938108030044 41.73397811633543
  endloop
endfacet
facet normal -1.0 0.0 0.0
  outer loop
    vertex 0.0 -14.861518681755635 24.612313097480964
    vertex 0.0 -12.280938108030044 41.73397811633543
    vertex 0.0 -13.393715627697263 28.27073610338883
  endloop
endfacet
facet normal -1.0 0.0 0.0
  outer loop
    vertex 0.0 -13.393715627697263 28.27073610338883
    vertex 0.0 -12.280938108030044 41.73397811633543
    vertex 0.0 -11.02905720090615 31.424605983435384
  endloop
endfacet
facet normal -1.0 0.0 0.0
  outer loop
    vertex 0.0 -11.02905720090615 31.424605983435384
    vertex 0.0 -12.280938108030044 41.73397811633543
    vertex 0.0 -0.2809381080300444 41.73397811633543
  endloop
endfacet
facet normal -1.0 0.0 0.0
  outer loop
    vertex 0.0 -11.02905720090615 31.424605983435384
    vertex 0.0 -0.2809381080300444 41.73397811633543
    vertex 0.0 -7.928690965385289 33.85899171731185
  endloop
endfacet
facet normal -1.0 0.0 0.0
  outer loop
    vertex 0.0 -7.928690965385289 33.85899171731185
    vertex 0.0 -0.2809381080300444 41.73397811633543
    vertex 0.0 -4.30390175648796 35.40799394026718
  endloop
endfacet
facet normal -1.0 0.0 0.0
  outer loop
    vertex 0.0 -4.30390175648796 35.40799394026718
    vertex 0.0 -0.2809381080300444 41.73397811633543
    vertex 0.0 -0.4017129685531361 35.96605071065419
  endloop
endfacet
facet normal -1.0 0.0 0.0
  outer loop
    vertex 0.0 -0.4017129685531361 35.96605071065419
    vertex 0.0 -0.2809381080300444 41.73397811633543
    vertex 0.0 3.5119476811933166 35.495131381803425
  endloop
endfacet
facet normal -1.0 0.0 0.0
  outer loop
    vertex 0.0 3.5119476811933166 35.495131381803425
    vertex 0.0 -0.2809381080300444 41.73397811633543
    vertex 0.0 11.814185391790176 41.733978116335436
  endloop
endfacet
facet normal -1.0 0.0 0.0
  outer loop
    vertex 0.0 3.5119476811933166 35.495131381803425
    vertex 0.0 11.814185391790176 41.733978116335436
    vertex 0.0 7.1703706871011965 34.02732832774507
  endloop
endfacet
facet normal -1.0 0.0 0.0
  outer loop
    vertex 0.0 7.1703706871011965 34.02732832774507
    vertex 0.0 11.814185391790176 41.733978116335436
    vertex 0.0 10.324240567147742 31.66266990095395
  endloop
endfacet
facet normal -1.0 0.0 0.0
  outer loop
    vertex 0.0 10.324240567147742 31.66266990095395
    vertex 0.0 11.814185391790176 41.733978116335436
    vertex 0.0 12.75862630102421 28.562303665433074
  endloop
endfacet
facet normal -1.0 0.0 0.0
  outer loop
    vertex 0.0 12.75862630102421 28.562303665433074
    vertex 0.0 11.814185391790176 41.733978116335436
    vertex 0.0 23.861747141700295 20.866989058167725
  endloop
endfacet
facet normal -1.0 0.0 0.0
  outer loop
    vertex 0.0 12.75862630102421 28.562303665433074
    vertex 0.0 23.861747141700295 20.866989058167725
    vertex 0.0 14.307628523979544 24.93751445653576
  endloop
endfacet
facet normal -1.0 0.0 0.0
  outer loop
    vertex 0.0 14.307628523979544 24.93751445653576
    vertex 0.0 23.861747141700295 20.866989058167725
    vertex 0.0 14.86568529436656 21.035325668600933
  endloop
endfacet
facet normal -1.0 0.0 0.0
  outer loop
    vertex 0.0 -24.328499857940145 20.86698905816772
    vertex 0.0 -14.774381240219395 16.796463659799674
    vertex 0.0 -12.280938108030039 -2.797935494402992e-15
  endloop
endfacet
facet normal -1.0 0.0 0.0
  outer loop
    vertex 0.0 -14.774381240219395 16.796463659799674
    vertex 0.0 -24.328499857940145 20.86698905816772
    vertex 0.0 -15.332438010606412 20.698652447734506
  endloop
endfacet
facet normal -1.0 0.0 0.0
  outer loop
    vertex 0.0 -12.280938108030039 -2.797935494402992e-15
    vertex 0.0 -14.774381240219395 16.796463659799674
    vertex 0.0 -13.22537901726406 13.171674450902362
  endloop
endfacet
facet normal -1.0 0.0 0.0
  outer loop
    vertex 0.0 -12.280938108030039 -2.797935494402992e-15
    vertex 0.0 -13.22537901726406 13.171674450902362
    vertex 0.0 -10.790993283387591 10.071308215381487
  endloop
endfacet
facet normal -1.0 0.0 0.0
  outer loop
    vertex 0.0 -12.280938108030039 -2.797935494402992e-15
    vertex 0.0 -10.790993283387591 10.071308215381487
    vertex 0.0 -7.637123403341044 7.706649788590378
  endloop
endfacet
facet normal -1.0 0.0 0.0
  outer loop
    vertex 0.0 -12.280938108030039 -2.797935494402992e-15
    vertex 0.0 -7.637123403341044 7.706649788590378
    vertex 0.0 -3.978700397433173 6.23884673453201
  endloop
endfacet
facet normal -1.0 0.0 0.0
  outer loop
    vertex 0.0 -12.280938108030039 -2.797935494402992e-15
    vertex 0.0 -3.978700397433173 6.23884673453201
    vertex 0.0 11.814185391790197 -2.8199664825478975e-15
  endloop
endfacet
facet normal -1.0 0.0 0.0
  outer loop
    vertex 0.0 11.814185391790197 -2.8199664825478975e-15
    vertex 0.0 -3.978700397433173 6.23884673453201
    vertex 0.0 -0.06503974768671027 5.767927405681235
  endloop
endfacet
facet normal -1.0 0.0 0.0
  outer loop
    vertex 0.0 11.814185391790197 -2.8199664825478975e-15
    vertex 0.0 -0.06503974768671027 5.767927405681235
    vertex 0.0 3.8371490402481188 6.325984176068245
  endloop
endfacet
facet normal -1.0 0.0 0.0
  outer loop
    vertex 0.0 11.814185391790197 -2.8199664825478975e-15
    vertex 0.0 3.8371490402481188 6.325984176068245
    vertex 0.0 7.461938249145443 7.874986399023585
  endloop
endfacet
facet normal -1.0 0.0 0.0
  outer loop
    vertex 0.0 11.814185391790197 -2.8199664825478975e-15
    vertex 0.0 7.461938249145443 7.874986399023585
    vertex 0.0 10.562304484666306 10.309372132900052
  endloop
endfacet
facet normal -1.0 0.0 0.0
  outer loop
    vertex 0.0 11.814185391790197 -2.8199664825478975e-15
    vertex 0.0 10.562304484666306 10.309372132900052
    vertex 0.0 12.926962911457414 13.463242012946607
  endloop
endfacet
facet normal -1.0 0.0 0.0
  outer loop
    vertex 0.0 11.814185391790197 -2.8199664825478975e-15
    vertex 0.0 12.926962911457414 13.463242012946607
    vertex 0.0 23.861747141700295 20.866989058167725
  endloop
endfacet
facet normal -1.0 0.0 0.0
  outer loop
    vertex 0.0 23.861747141700295 20.866989058167725
    vertex 0.0 12.926962911457414 13.463242012946607
    vertex 0.0 14.39476596551579 17.121665018854475
  endloop
endfacet
facet normal -1.0 0.0 0.0
  outer loop
    vertex 0.0 23.861747141700295 20.866989058167725
    vertex 0.0 14.39476596551579 17.121665018854475
    vertex 0.0 14.86568529436656 21.035325668600933
  endloop
endfacet
facet normal 1.0 1.0871366212227766e-19 -4.7696453605392935e-17
  outer loop
    vertex 41.99999999999999 -24.328499857940145 20.86698905816772
    vertex 42.0 -14.774381240219395 16.796463659799674
    vertex 42.0 -15.332438010606412 20.698652447734506
  endloop
endfacet
facet normal 1.0 1.0871366212227766e-19 -4.7696453605392935e-17
  outer loop
    vertex 42.0 -14.774381240219395 16.796463659799674
    vertex 41.99999999999999 -24.328499857940145 20.86698905816772
    vertex 41.99999999999999 -12.280938108030039 -2.797935494402992e-15
  endloop
endfacet
facet normal 1.0 1.0871366212227766e-19 -4.7696453605392935e-17
  outer loop
    vertex 42.0 -14.774381240219395 16.796463659799674
    vertex 41.99999999999999 -12.280938108030039 -2.797935494402992e-15
    vertex 42.0 -13.22537901726406 13.171674450902362
  endloop
endfacet
facet normal 1.0 1.0871366212227766e-19 -4.7696453605392935e-17
  outer loop
    vertex 42.0 -13.22537901726406 13.171674450902362
    vertex 41.99999999999999 -12.280938108030039 -2.797935494402992e-15
    vertex 42.0 -10.790993283387591 10.071308215381487
  endloop
endfacet
facet normal 1.0 1.0871366212227766e-19 -4.7696453605392935e-17
  outer loop
    vertex 42.0 -10.790993283387591 10.071308215381487
    vertex 41.99999999999999 -12.280938108030039 -2.797935494402992e-15
    vertex 42.0 -7.637123403341044 7.706649788590378
  endloop
endfacet
facet normal 1.0 1.0871366212227766e-19 -4.7696453605392935e-17
  outer loop
    vertex 42.0 -7.637123403341044 7.706649788590378
    vertex 41.99999999999999 -12.280938108030039 -2.797935494402992e-15
    vertex 42.0 -3.978700397433173 6.23884673453201
  endloop
endfacet
facet normal 1.0 1.0871366212227766e-19 -4.7696453605392935e-17
  outer loop
    vertex 42.0 -3.978700397433173 6.23884673453201
    vertex 41.99999999999999 -12.280938108030039 -2.797935494402992e-15
    vertex 41.99999999999999 11.814185391790197 -2.8199664825478975e-15
  endloop
endfacet
facet normal 1.0 1.0871366212227766e-19 -4.7696453605392935e-17
  outer loop
    vertex 42.0 -3.978700397433173 6.23884673453201
    vertex 41.99999999999999 11.814185391790197 -2.8199664825478975e-15
    vertex 42.0 -0.06503974768671027 5.767927405681235
  endloop
endfacet
facet normal 1.0 1.0871366212227766e-19 -4.7696453605392935e-17
  outer loop
    vertex 42.0 -0.06503974768671027 5.767927405681235
    vertex 41.99999999999999 11.814185391790197 -2.8199664825478975e-15
    vertex 42.0 3.8371490402481188 6.325984176068245
  endloop
endfacet
facet normal 1.0 1.0871366212227766e-19 -4.7696453605392935e-17
  outer loop
    vertex 42.0 3.8371490402481188 6.325984176068245
    vertex 41.99999999999999 11.814185391790197 -2.8199664825478975e-15
    vertex 42.0 7.461938249145443 7.874986399023585
  endloop
endfacet
facet normal 1.0 1.0871366212227766e-19 -4.7696453605392935e-17
  outer loop
    vertex 42.0 7.461938249145443 7.874986399023585
    vertex 41.99999999999999 11.814185391790197 -2.8199664825478975e-15
    vertex 42.0 10.562304484666306 10.309372132900052
  endloop
endfacet
facet normal 1.0 1.0871366212227766e-19 -4.7696453605392935e-17
  outer loop
    vertex 42.0 10.562304484666306 10.309372132900052
    vertex 41.99999999999999 11.814185391790197 -2.8199664825478975e-15
    vertex 42.0 12.926962911457414 13.463242012946607
  endloop
endfacet
facet normal 1.0 1.0871366212227766e-19 -4.7696453605392935e-17
  outer loop
    vertex 42.0 12.926962911457414 13.463242012946607
    vertex 41.99999999999999 11.814185391790197 -2.8199664825478975e-15
    vertex 41.99999999999999 23.861747141700295 20.866989058167725
  endloop
endfacet
facet normal 1.0 1.0871366212227766e-19 -4.7696453605392935e-17
  outer loop
    vertex 42.0 12.926962911457414 13.463242012946607
    vertex 41.99999999999999 23.861747141700295 20.866989058167725
    vertex 42.0 14.39476596551579 17.121665018854475
  endloop
endfacet
facet normal 1.0 1.0871366212227766e-19 -4.7696453605392935e-17
  outer loop
    vertex 42.0 14.39476596551579 17.121665018854475
    vertex 41.99999999999999 23.861747141700295 20.866989058167725
    vertex 42.0 14.86568529436656 21.035325668600933
  endloop
endfacet
facet normal 1.0 1.0871366212227766e-19 -4.7696453605392935e-17
  outer loop
    vertex 41.99999999999999 -24.328499857940145 20.86698905816772
    vertex 42.0 -14.861518681755635 24.612313097480964
    vertex 41.99999999999999 -12.280938108030044 41.73397811633543
  endloop
endfacet
facet normal 1.0 1.0871366212227766e-19 -4.7696453605392935e-17
  outer loop
    vertex 42.0 -14.861518681755635 24.612313097480964
    vertex 41.99999999999999 -24.328499857940145 20.86698905816772
    vertex 42.0 -15.332438010606412 20.698652447734506
  endloop
endfacet
facet normal 1.0 1.0871366212227766e-19 -4.7696453605392935e-17
  outer loop
    vertex 41.99999999999999 -12.280938108030044 41.73397811633543
    vertex 42.0 -14.861518681755635 24.612313097480964
    vertex 42.0 -13.393715627697263 28.27073610338883
  endloop
endfacet
facet normal 1.0 1.0871366212227766e-19 -4.7696453605392935e-17
  outer loop
    vertex 41.99999999999999 -12.280938108030044 41.73397811633543
    vertex 42.0 -13.393715627697263 28.27073610338883
    vertex 42.0 -11.02905720090615 31.424605983435384
  endloop
endfacet
facet normal 1.0 1.0871366212227766e-19 -4.7696453605392935e-17
  outer loop
    vertex 41.99999999999999 -12.280938108030044 41.73397811633543
    vertex 42.0 -11.02905720090615 31.424605983435384
    vertex 42.0 -0.2809381080300418 41.73397811633543
  endloop
endfacet
facet normal 1.0 1.0871366212227766e-19 -4.7696453605392935e-17
  outer loop
    vertex 42.0 -0.2809381080300418 41.73397811633543
    vertex 42.0 -11.02905720090615 31.424605983435384
    vertex 42.0 -7.928690965385289 33.85899171731185
  endloop
endfacet
facet normal 1.0 1.0871366212227766e-19 -4.7696453605392935e-17
  outer loop
    vertex 42.0 -0.2809381080300418 41.73397811633543
    vertex 42.0 -7.928690965385289 33.85899171731185
    vertex 42.0 -4.30390175648796 35.40799394026718
  endloop
endfacet
facet normal 1.0 1.0871366212227766e-19 -4.7696453605392935e-17
  outer loop
    vertex 42.0 -0.2809381080300418 41.73397811633543
    vertex 42.0 -4.30390175648796 35.40799394026718
    vertex 42.0 -0.4017129685531361 35.96605071065419
  endloop
endfacet
facet normal 1.0 1.0871366212227766e-19 -4.7696453605392935e-17
  outer loop
    vertex 42.0 -0.2809381080300418 41.73397811633543
    vertex 42.0 -0.4017129685531361 35.96605071065419
    vertex 42.0 3.5119476811933166 35.495131381803425
  endloop
endfacet
facet normal 1.0 1.0871366212227766e-19 -4.7696453605392935e-17
  outer loop
    vertex 42.0 -0.2809381080300418 41.73397811633543
    vertex 42.0 3.5119476811933166 35.495131381803425
    vertex 41.99999999999999 11.814185391790176 41.733978116335436
  endloop
endfacet
facet normal 1.0 1.0871366212227766e-19 -4.7696453605392935e-17
  outer loop
    vertex 41.99999999999999 11.814185391790176 41.733978116335436
    vertex 42.0 3.5119476811933166 35.495131381803425
    vertex 42.0 7.1703706871011965 34.02732832774507
  endloop
endfacet
facet normal 1.0 1.0871366212227766e-19 -4.7696453605392935e-17
  outer loop
    vertex 41.99999999999999 11.814185391790176 41.733978116335436
    vertex 42.0 7.1703706871011965 34.02732832774507
    vertex 42.0 10.324240567147742 31.66266990095395
  endloop
endfacet
facet normal 1.0 1.0871366212227766e-19 -4.7696453605392935e-17
  outer loop
    vertex 41.99999999999999 11.814185391790176 41.733978116335436
    vertex 42.0 10.324240567147742 31.66266990095395
    vertex 42.0 12.75862630102421 28.562303665433074
  endloop
endfacet
facet normal 1.0 1.0871366212227766e-19 -4.7696453605392935e-17
  outer loop
    vertex 41.99999999999999 11.814185391790176 41.733978116335436
    vertex 42.0 12.75862630102421 28.562303665433074
    vertex 41.99999999999999 23.861747141700295 20.866989058167725
  endloop
endfacet
facet normal 1.0 1.0871366212227766e-19 -4.7696453605392935e-17
  outer loop
    vertex 41.99999999999999 23.861747141700295 20.866989058167725
    vertex 42.0 12.75862630102421 28.562303665433074
    vertex 42.0 14.307628523979544 24.93751445653576
  endloop
endfacet
facet normal 1.0 1.0871366212227766e-19 -4.7696453605392935e-17
  outer loop
    vertex 41.99999999999999 23.861747141700295 20.866989058167725
    vertex 42.0 14.307628523979544 24.93751445653576
    vertex 42.0 14.86568529436656 21.035325668600933
  endloop
endfacet
facet normal -0.0 -0.0 1.0
  outer loop
    vertex 42.0 -0.2809381080300418 41.73397811633543
    vertex 35.071796769724486 -12.280938108030044 41.73397811633543
    vertex 41.99999999999999 -12.280938108030044 41.73397811633543
  endloop
endfacet
facet normal 0.0 -0.8660254037844387 -0.49999999999999983
  outer loop
    vertex 27.999999999999993 -24.328499857940145 20.86698905816772
    vertex 14.999999999999998 -16.828499857940148 7.87660800140114
    vertex 27.999999999999993 -16.828499857940148 7.87660800140114
  endloop
endfacet
facet normal 0.0 -0.8660254037844387 -0.49999999999999983
  outer loop
    vertex 14.999999999999998 -16.828499857940148 7.87660800140114
    vertex 27.999999999999993 -24.328499857940145 20.86698905816772
    vertex 14.999999999999998 -24.328499857940145 20.86698905816772
  endloop
endfacet
facet normal 0.0 1.7347234759768067e-18 -1.0
  outer loop
    vertex 41.99999999999999 11.814185391790197 -2.8199664825478975e-15
    vertex 0.0 -12.280938108030039 -2.797935494402992e-15
    vertex 0.0 11.814185391790197 -2.8199664825478975e-15
  endloop
endfacet
facet normal 0.0 1.7347234759768067e-18 -1.0
  outer loop
    vertex 0.0 -12.280938108030039 -2.797935494402992e-15
    vertex 41.99999999999999 11.814185391790197 -2.8199664825478975e-15
    vertex 41.99999999999999 -12.280938108030039 -2.797935494402992e-15
  endloop
endfacet
facet normal 0.0 0.866025403784439 -0.49999999999999956
  outer loop
    vertex 0.0 23.861747141700295 20.866989058167725
    vertex 41.99999999999999 11.814185391790197 -2.8199664825478975e-15
    vertex 0.0 11.814185391790197 -2.8199664825478975e-15
  endloop
endfacet
facet normal 0.0 0.866025403784439 -0.49999999999999956
  outer loop
    vertex 41.99999999999999 11.814185391790197 -2.8199664825478975e-15
    vertex 0.0 23.861747141700295 20.866989058167725
    vertex 41.99999999999999 23.861747141700295 20.866989058167725
  endloop
endfacet
facet normal 0.0 0.5998792010647653 0.8000905849526658
  outer loop
    vertex 42.0 -10.790993283387591 10.071308215381487
    vertex 0.0 -7.637123403341044 7.706649788590378
    vertex 0.0 -10.790993283387591 10.071308215381487
  endloop
endfacet
facet normal 0.0 0.5998792010647653 0.8000905849526658
  outer loop
    vertex 0.0 -7.637123403341044 7.706649788590378
    vertex 42.0 -10.790993283387591 10.071308215381487
    vertex 42.0 -7.637123403341044 7.706649788590378
  endloop
endfacet
facet normal 0.0 0.7865174941550759 0.6175679973800621
  outer loop
    vertex 0.0 -13.22537901726406 13.171674450902362
    vertex 42.0 -10.790993283387591 10.071308215381487
    vertex 0.0 -10.790993283387591 10.071308215381487
  endloop
endfacet
facet normal 0.0 0.7865174941550759 0.6175679973800621
  outer loop
    vertex 42.0 -10.790993283387591 10.071308215381487
    vertex 0.0 -13.22537901726406 13.171674450902362
    vertex 42.0 -13.22537901726406 13.171674450902362
  endloop
endfacet
facet normal 0.0 0.9195559198003326 0.3929591713653778
  outer loop
    vertex 0.0 -14.774381240219395 16.796463659799674
    vertex 42.0 -13.22537901726406 13.171674450902362
    vertex 0.0 -13.22537901726406 13.171674450902362
  endloop
endfacet
facet normal 0.0 0.9195559198003326 0.3929591713653778
  outer loop
    vertex 42.0 -13.22537901726406 13.171674450902362
    vertex 0.0 -14.774381240219395 16.796463659799674
    vertex 42.0 -14.774381240219395 16.796463659799674
  endloop
endfacet
facet normal 0.0 0.9899281291492055 0.14157082721787712
  outer loop
    vertex 0.0 -15.332438010606412 20.698652447734506
    vertex 42.0 -14.774381240219395 16.796463659799674
    vertex 0.0 -14.774381240219395 16.796463659799674
  endloop
endfacet
facet normal 0.0 0.9899281291492055 0.14157082721787712
  outer loop
    vertex 42.0 -14.774381240219395 16.796463659799674
    vertex 0.0 -15.332438010606412 20.698652447734506
    vertex 42.0 -15.332438010606412 20.698652447734506
  endloop
endfacet
facet normal 0.0 0.9928383724301428 -0.11946533484766693
  outer loop
    vertex 0.0 -14.861518681755635 24.612313097480964
    vertex 42.0 -15.332438010606412 20.698652447734506
    vertex 0.0 -15.332438010606412 20.698652447734506
  endloop
endfacet
facet normal 0.0 0.9928383724301428 -0.11946533484766693
  outer loop
    vertex 42.0 -15.332438010606412 20.698652447734506
    vertex 0.0 -14.861518681755635 24.612313097480964
    vertex 42.0 -14.861518681755635 24.612313097480964
  endloop
endfacet
facet normal 0.0 0.928088321372953 -0.372360131769144
  outer loop
    vertex 0.0 -13.393715627697263 28.27073610338883
    vertex 42.0 -14.861518681755635 24.612313097480964
    vertex 0.0 -14.861518681755635 24.612313097480964
  endloop
endfacet
facet normal 0.0 0.928088321372953 -0.372360131769144
  outer loop
    vertex 42.0 -14.861518681755635 24.612313097480964
    vertex 0.0 -13.393715627697263 28.27073610338883
    vertex 42.0 -13.393715627697263 28.27073610338883
  endloop
endfacet
facet normal 0.0 0.8000905849526657 -0.5998792010647654
  outer loop
    vertex 0.0 -11.02905720090615 31.424605983435384
    vertex 42.0 -13.393715627697263 28.27073610338883
    vertex 0.0 -13.393715627697263 28.27073610338883
  endloop
endfacet
facet normal 0.0 0.8000905849526657 -0.5998792010647654
  outer loop
    vertex 42.0 -13.393715627697263 28.27073610338883
    vertex 0.0 -11.02905720090615 31.424605983435384
    vertex 42.0 -11.02905720090615 31.424605983435384
  endloop
endfacet
facet normal 0.0 0.6175679973800622 -0.7865174941550758
  outer loop
    vertex 42.0 -7.928690965385289 33.85899171731185
    vertex 0.0 -11.02905720090615 31.424605983435384
    vertex 0.0 -7.928690965385289 33.85899171731185
  endloop
endfacet
facet normal 0.0 0.6175679973800622 -0.7865174941550758
  outer loop
    vertex 0.0 -11.02905720090615 31.424605983435384
    vertex 42.0 -7.928690965385289 33.85899171731185
    vertex 42.0 -11.02905720090615 31.424605983435384
  endloop
endfacet
facet normal 0.0 0.3929591713653778 -0.9195559198003327
  outer loop
    vertex 42.0 -4.30390175648796 35.40799394026718
    vertex 0.0 -7.928690965385289 33.85899171731185
    vertex 0.0 -4.30390175648796 35.40799394026718
  endloop
endfacet
facet normal 0.0 0.3929591713653778 -0.9195559198003327
  outer loop
    vertex 0.0 -7.928690965385289 33.85899171731185
    vertex 42.0 -4.30390175648796 35.40799394026718
    vertex 42.0 -7.928690965385289 33.85899171731185
  endloop
endfacet
facet normal 0.0 0.1415708272178786 -0.9899281291492054
  outer loop
    vertex 42.0 -0.4017129685531361 35.96605071065419
    vertex 0.0 -4.30390175648796 35.40799394026718
    vertex 0.0 -0.4017129685531361 35.96605071065419
  endloop
endfacet
facet normal 0.0 0.1415708272178786 -0.9899281291492054
  outer loop
    vertex 0.0 -4.30390175648796 35.40799394026718
    vertex 42.0 -0.4017129685531361 35.96605071065419
    vertex 42.0 -4.30390175648796 35.40799394026718
  endloop
endfacet
facet normal 0.0 -0.11946533484766715 -0.9928383724301428
  outer loop
    vertex 42.0 3.5119476811933166 35.495131381803425
    vertex 0.0 -0.4017129685531361 35.96605071065419
    vertex 0.0 3.5119476811933166 35.495131381803425
  endloop
endfacet
facet normal 0.0 -0.11946533484766715 -0.9928383724301428
  outer loop
    vertex 0.0 -0.4017129685531361 35.96605071065419
    vertex 42.0 3.5119476811933166 35.495131381803425
    vertex 42.0 -0.4017129685531361 35.96605071065419
  endloop
endfacet
facet normal 0.0 -0.3723601317691428 -0.9280883213729536
  outer loop
    vertex 42.0 7.1703706871011965 34.02732832774507
    vertex 0.0 3.5119476811933166 35.495131381803425
    vertex 0.0 7.1703706871011965 34.02732832774507
  endloop
endfacet
facet normal 0.0 -0.3723601317691428 -0.9280883213729536
  outer loop
    vertex 0.0 3.5119476811933166 35.495131381803425
    vertex 42.0 7.1703706871011965 34.02732832774507
    vertex 42.0 3.5119476811933166 35.495131381803425
  endloop
endfacet
facet normal 0.0 -0.5998792010647663 -0.800090584952665
  outer loop
    vertex 42.0 10.324240567147742 31.66266990095395
    vertex 0.0 7.1703706871011965 34.02732832774507
    vertex 0.0 10.324240567147742 31.66266990095395
  endloop
endfacet
facet normal 0.0 -0.5998792010647663 -0.800090584952665
  outer loop
    vertex 0.0 7.1703706871011965 34.02732832774507
    vertex 42.0 10.324240567147742 31.66266990095395
    vertex 42.0 7.1703706871011965 34.02732832774507
  endloop
endfacet
facet normal 0.0 -0.7865174941550759 -0.6175679973800621
  outer loop
    vertex 42.0 10.324240567147742 31.66266990095395
    vertex 0.0 12.75862630102421 28.562303665433074
    vertex 42.0 12.75862630102421 28.562303665433074
  endloop
endfacet
facet normal 0.0 -0.7865174941550759 -0.6175679973800621
  outer loop
    vertex 0.0 12.75862630102421 28.562303665433074
    vertex 42.0 10.324240567147742 31.66266990095395
    vertex 0.0 10.324240567147742 31.66266990095395
  endloop
endfacet
facet normal 0.0 -0.9195559198003325 -0.39295917136537817
  outer loop
    vertex 42.0 12.75862630102421 28.562303665433074
    vertex 0.0 14.307628523979544 24.93751445653576
    vertex 42.0 14.307628523979544 24.93751445653576
  endloop
endfacet
facet normal 0.0 -0.9195559198003325 -0.39295917136537817
  outer loop
    vertex 0.0 14.307628523979544 24.93751445653576
    vertex 42.0 12.75862630102421 28.562303665433074
    vertex 0.0 12.75862630102421 28.562303665433074
  endloop
endfacet
facet normal 0.0 -0.9899281291492054 -0.14157082721787784
  outer loop
    vertex 42.0 14.307628523979544 24.93751445653576
    vertex 0.0 14.86568529436656 21.035325668600933
    vertex 42.0 14.86568529436656 21.035325668600933
  endloop
endfacet
facet normal 0.0 -0.9899281291492054 -0.14157082721787784
  outer loop
    vertex 0.0 14.86568529436656 21.035325668600933
    vertex 42.0 14.307628523979544 24.93751445653576
    vertex 0.0 14.307628523979544 24.93751445653576
  endloop
endfacet
facet normal 0.0 -0.9928383724301427 0.1194653348476671
  outer loop
    vertex 42.0 14.86568529436656 21.035325668600933
    vertex 0.0 14.39476596551579 17.121665018854475
    vertex 42.0 14.39476596551579 17.121665018854475
  endloop
endfacet
facet normal 0.0 -0.9928383724301427 0.1194653348476671
  outer loop
    vertex 0.0 14.39476596551579 17.121665018854475
    vertex 42.0 14.86568529436656 21.035325668600933
    vertex 0.0 14.86568529436656 21.035325668600933
  endloop
endfacet
facet normal 0.0 -0.9280883213729534 0.3723601317691432
  outer loop
    vertex 42.0 14.39476596551579 17.121665018854475
    vertex 0.0 12.926962911457414 13.463242012946607
    vertex 42.0 12.926962911457414 13.463242012946607
  endloop
endfacet
facet normal 0.0 -0.9280883213729534 0.3723601317691432
  outer loop
    vertex 0.0 12.926962911457414 13.463242012946607
    vertex 42.0 14.39476596551579 17.121665018854475
    vertex 0.0 14.39476596551579 17.121665018854475
  endloop
endfacet
facet normal 0.0 -0.800090584952666 0.5998792010647649
  outer loop
    vertex 42.0 12.926962911457414 13.463242012946607
    vertex 0.0 10.562304484666306 10.309372132900052
    vertex 42.0 10.562304484666306 10.309372132900052
  endloop
endfacet
facet normal 0.0 -0.800090584952666 0.5998792010647649
  outer loop
    vertex 0.0 10.562304484666306 10.309372132900052
    vertex 42.0 12.926962911457414 13.463242012946607
    vertex 0.0 12.926962911457414 13.463242012946607
  endloop
endfacet
facet normal 0.0 -0.6175679973800624 0.7865174941550758
  outer loop
    vertex 42.0 7.461938249145443 7.874986399023585
    vertex 0.0 10.562304484666306 10.309372132900052
    vertex 0.0 7.461938249145443 7.874986399023585
  endloop
endfacet
facet normal 0.0 -0.6175679973800624 0.7865174941550758
  outer loop
    vertex 0.0 10.562304484666306 10.309372132900052
    vertex 42.0 7.461938249145443 7.874986399023585
    vertex 42.0 10.562304484666306 10.309372132900052
  endloop
endfacet
facet normal 0.0 -0.39295917136537795 0.9195559198003325
  outer loop
    vertex 42.0 3.8371490402481188 6.325984176068245
    vertex 0.0 7.461938249145443 7.874986399023585
    vertex 0.0 3.8371490402481188 6.325984176068245
  endloop
endfacet
facet normal 0.0 -0.39295917136537795 0.9195559198003325
  outer loop
    vertex 0.0 7.461938249145443 7.874986399023585
    vertex 42.0 3.8371490402481188 6.325984176068245
    vertex 42.0 7.461938249145443 7.874986399023585
  endloop
endfacet
facet normal 0.0 -0.14157082721787778 0.9899281291492055
  outer loop
    vertex 42.0 -0.06503974768671027 5.767927405681235
    vertex 0.0 3.8371490402481188 6.325984176068245
    vertex 0.0 -0.06503974768671027 5.767927405681235
  endloop
endfacet
facet normal 0.0 -0.14157082721787778 0.9899281291492055
  outer loop
    vertex 0.0 3.8371490402481188 6.325984176068245
    vertex 42.0 -0.06503974768671027 5.767927405681235
    vertex 42.0 3.8371490402481188 6.325984176068245
  endloop
endfacet
facet normal 0.0 0.11946533484766679 0.9928383724301427
  outer loop
    vertex 42.0 -3.978700397433173 6.23884673453201
    vertex 0.0 -0.06503974768671027 5.767927405681235
    vertex 0.0 -3.978700397433173 6.23884673453201
  endloop
endfacet
facet normal 0.0 0.11946533484766679 0.9928383724301427
  outer loop
    vertex 0.0 -0.06503974768671027 5.767927405681235
    vertex 42.0 -3.978700397433173 6.23884673453201
    vertex 42.0 -0.06503974768671027 5.767927405681235
  endloop
endfacet
facet normal 0.0 0.37236013176914395 0.928088321372953
  outer loop
    vertex 42.0 -7.637123403341044 7.706649788590378
    vertex 0.0 -3.978700397433173 6.23884673453201
    vertex 0.0 -7.637123403341044 7.706649788590378
  endloop
endfacet
facet normal 0.0 0.37236013176914395 0.928088321372953
  outer loop
    vertex 0.0 -3.978700397433173 6.23884673453201
    vertex 42.0 -7.637123403341044 7.706649788590378
    vertex 42.0 -3.978700397433173 6.23884673453201
  endloop
endfacet
facet normal 3.686792389211309e-33 0.8660254037844384 0.5000000000000004
  outer loop
    vertex 0.0 11.814185391790176 41.733978116335436
    vertex 41.99999999999999 23.861747141700295 20.866989058167725
    vertex 0.0 23.861747141700295 20.866989058167725
  endloop
endfacet
facet normal 3.686792389211309e-33 0.8660254037844384 0.5000000000000004
  outer loop
    vertex 41.99999999999999 23.861747141700295 20.866989058167725
    vertex 0.0 11.814185391790176 41.733978116335436
    vertex 41.99999999999999 11.814185391790176 41.733978116335436
  endloop
endfacet
facet normal 3.686792389211309e-33 0.8660254037844384 0.5000000000000004
  outer loop
    vertex 41.99999999999999 11.814185391790176 41.733978116335436
    vertex 0.0 11.814185391790176 41.733978116335436
    vertex 6.983122808502972 11.814185391790176 41.733978116335436
  endloop
endfacet
facet normal 3.686792389211309e-33 0.8660254037844384 0.5000000000000004
  outer loop
    vertex 41.99999999999999 11.814185391790176 41.733978116335436
    vertex 6.983122808502972 11.814185391790176 41.733978116335436
    vertex 35.01687719149703 11.814185391790176 41.733978116335436
  endloop
endfacet
facet normal -0.0 -4.6629808824851e-16 1.0
  outer loop
    vertex 42.0 -0.2809381080300418 41.73397811633543
    vertex 41.99999999999999 11.814185391790176 41.733978116335436
    vertex 35.01687719149703 11.814185391790176 41.733978116335436
  endloop
endfacet
facet normal -2.0190512793983024e-16 -2.340694845560648e-16 1.0
  outer loop
    vertex 6.928203230275516 -12.280938108030044 41.73397811633543
    vertex 0.0 -0.2809381080300444 41.73397811633543
    vertex 0.0 -12.280938108030044 41.73397811633543
  endloop
endfacet
facet normal -2.0190512793983024e-16 -2.340694845560648e-16 1.0
  outer loop
    vertex 6.983122808502972 11.814185391790176 41.733978116335436
    vertex 0.0 11.814185391790176 41.733978116335436
    vertex 0.0 -0.2809381080300444 41.73397811633543
  endloop
endfacet
facet normal 1.0192928587371256e-31 -2.819176004692449e-32 1.0
  outer loop
    vertex 6.928203230275516 -12.280938108030071 161.73397811633544
    vertex 6.013218515322 0.3486496384457336 161.73397811633544
    vertex 7.7012504034048755e-31 -0.28093810803007246 161.73397811633544
  endloop
endfacet
facet normal 1.0192928587371256e-31 -2.819176004692449e-32 1.0
  outer loop
    vertex 6.013218515322 0.3486496384457336 161.73397811633544
    vertex 6.928203230275516 -12.280938108030071 161.73397811633544
    vertex 6.360931411647575 -3.5516675168184553 161.73397811633544
  endloop
endfacet
facet normal 1.0192928587371256e-31 -2.819176004692449e-32 1.0
  outer loop
    vertex 6.360931411647575 -3.5516675168184553 161.73397811633544
    vertex 6.928203230275516 -12.280938108030071 161.73397811633544
    vertex 7.7062726400646815 -7.229089868009628 161.73397811633544
  endloop
endfacet
facet normal 1.0192928587371256e-31 -2.819176004692449e-32 1.0
  outer loop
    vertex 7.7062726400646815 -7.229089868009628 161.73397811633544
    vertex 6.928203230275516 -12.280938108030071 161.73397811633544
    vertex 10.500000000000016 -18.467471587503372 161.73397811633544
  endloop
endfacet
facet normal 1.0192928587371256e-31 -2.819176004692449e-32 1.0
  outer loop
    vertex 7.7062726400646815 -7.229089868009628 161.73397811633544
    vertex 10.500000000000016 -18.467471587503372 161.73397811633544
    vertex 9.95755941913819 -10.43300715912188 161.73397811633544
  endloop
endfacet
facet normal 1.0192928587371256e-31 -2.819176004692449e-32 1.0
  outer loop
    vertex 9.95755941913819 -10.43300715912188 161.73397811633544
    vertex 10.500000000000016 -18.467471587503372 161.73397811633544
    vertex 12.167224676526047 -12.280938108030071 161.73397811633544
  endloop
endfacet
facet normal 1.0192928587371256e-31 -2.819176004692449e-32 1.0
  outer loop
    vertex 12.167224676526047 -12.280938108030071 161.73397811633544
    vertex 10.500000000000016 -18.467471587503372 161.73397811633544
    vertex 12.961370275301553 -12.945077721489584 161.73397811633544
  endloop
endfacet
facet normal 1.0192928587371256e-31 -2.819176004692449e-32 1.0
  outer loop
    vertex 12.961370275301553 -12.945077721489584 161.73397811633544
    vertex 10.500000000000016 -18.467471587503372 161.73397811633544
    vertex 16.513000462739395 -14.594108097680268 161.73397811633544
  endloop
endfacet
facet normal 1.0192928587371256e-31 -2.819176004692449e-32 1.0
  outer loop
    vertex 16.513000462739395 -14.594108097680268 161.73397811633544
    vertex 10.500000000000016 -18.467471587503372 161.73397811633544
    vertex 31.50000000000001 -18.46747158750336 161.73397811633544
  endloop
endfacet
facet normal 1.0192928587371256e-31 -2.819176004692449e-32 1.0
  outer loop
    vertex 16.513000462739395 -14.594108097680268 161.73397811633544
    vertex 31.50000000000001 -18.46747158750336 161.73397811633544
    vertex 20.3704122535242 -15.267719592708072 161.73397811633544
  endloop
endfacet
facet normal 1.0192928587371256e-31 -2.819176004692449e-32 1.0
  outer loop
    vertex 20.3704122535242 -15.267719592708072 161.73397811633544
    vertex 31.50000000000001 -18.46747158750336 161.73397811633544
    vertex 24.270729408788387 -14.920006696382496 161.73397811633544
  endloop
endfacet
facet normal 1.0192928587371256e-31 -2.819176004692449e-32 1.0
  outer loop
    vertex 24.270729408788387 -14.920006696382496 161.73397811633544
    vertex 31.50000000000001 -18.46747158750336 161.73397811633544
    vertex 27.948151759979567 -13.574665467965385 161.73397811633544
  endloop
endfacet
facet normal 1.0192928587371256e-31 -2.819176004692449e-32 1.0
  outer loop
    vertex 27.948151759979567 -13.574665467965385 161.73397811633544
    vertex 31.50000000000001 -18.46747158750336 161.73397811633544
    vertex 29.78931899687312 -12.280938108030071 161.73397811633544
  endloop
endfacet
facet normal 1.0192928587371256e-31 -2.819176004692449e-32 1.0
  outer loop
    vertex 29.78931899687312 -12.280938108030071 161.73397811633544
    vertex 31.50000000000001 -18.46747158750336 161.73397811633544
    vertex 31.152069051091818 -11.323378688891879 161.73397811633544
  endloop
endfacet
facet normal 1.0192928587371256e-31 -2.819176004692449e-32 1.0
  outer loop
    vertex 31.152069051091818 -11.323378688891879 161.73397811633544
    vertex 31.50000000000001 -18.46747158750336 161.73397811633544
    vertex 33.66413961345952 -8.319567832728518 161.73397811633544
  endloop
endfacet
facet normal 1.0192928587371256e-31 -2.819176004692449e-32 1.0
  outer loop
    vertex 33.66413961345952 -8.319567832728518 161.73397811633544
    vertex 31.50000000000001 -18.46747158750336 161.73397811633544
    vertex 35.071796769724486 -12.280938108030071 161.73397811633544
  endloop
endfacet
facet normal 1.0192928587371256e-31 -2.819176004692449e-32 1.0
  outer loop
    vertex 33.66413961345952 -8.319567832728518 161.73397811633544
    vertex 35.071796769724486 -12.280938108030071 161.73397811633544
    vertex 35.3131699896502 -4.7679376452906785 161.73397811633544
  endloop
endfacet
facet normal 1.0192928587371256e-31 -2.819176004692449e-32 1.0
  outer loop
    vertex 35.3131699896502 -4.7679376452906785 161.73397811633544
    vertex 35.071796769724486 -12.280938108030071 161.73397811633544
    vertex 42.0 -0.2809381080300699 161.73397811633544
  endloop
endfacet
facet normal 1.0192928587371256e-31 -2.819176004692449e-32 1.0
  outer loop
    vertex 35.3131699896502 -4.7679376452906785 161.73397811633544
    vertex 42.0 -0.2809381080300699 161.73397811633544
    vertex 35.986781484678005 -0.9105258545058723 161.73397811633544
  endloop
endfacet
facet normal 1.0192928587371256e-31 -2.819176004692449e-32 1.0
  outer loop
    vertex 6.013218515322 0.3486496384457336 161.73397811633544
    vertex 6.983122808502972 11.814185391790149 161.73397811633544
    vertex 7.7012504034048755e-31 -0.28093810803007246 161.73397811633544
  endloop
endfacet
facet normal 1.0192928587371256e-31 -2.819176004692449e-32 1.0
  outer loop
    vertex 6.983122808502972 11.814185391790149 161.73397811633544
    vertex 6.013218515322 0.3486496384457336 161.73397811633544
    vertex 6.686830010349808 4.206061429230542 161.73397811633544
  endloop
endfacet
facet normal 1.0192928587371256e-31 -2.819176004692449e-32 1.0
  outer loop
    vertex 6.983122808502972 11.814185391790149 161.73397811633544
    vertex 6.686830010349808 4.206061429230542 161.73397811633544
    vertex 8.335860386540489 7.7576916166683745 161.73397811633544
  endloop
endfacet
facet normal 1.0192928587371256e-31 -2.819176004692449e-32 1.0
  outer loop
    vertex 6.983122808502972 11.814185391790149 161.73397811633544
    vertex 8.335860386540489 7.7576916166683745 161.73397811633544
    vertex 10.499999999999998 17.905595371443166 161.73397811633544
  endloop
endfacet
facet normal 1.0192928587371256e-31 -2.819176004692449e-32 1.0
  outer loop
    vertex 10.499999999999998 17.905595371443166 161.73397811633544
    vertex 8.335860386540489 7.7576916166683745 161.73397811633544
    vertex 10.847930948908191 10.761502472831737 161.73397811633544
  endloop
endfacet
facet normal 1.0192928587371256e-31 -2.819176004692449e-32 1.0
  outer loop
    vertex 10.499999999999998 17.905595371443166 161.73397811633544
    vertex 10.847930948908191 10.761502472831737 161.73397811633544
    vertex 12.346055949001414 11.814185391790149 161.73397811633544
  endloop
endfacet
facet normal 1.0192928587371256e-31 -2.819176004692449e-32 1.0
  outer loop
    vertex 10.499999999999998 17.905595371443166 161.73397811633544
    vertex 12.346055949001414 11.814185391790149 161.73397811633544
    vertex 14.051848240020446 13.012789251905247 161.73397811633544
  endloop
endfacet
facet normal 1.0192928587371256e-31 -2.819176004692449e-32 1.0
  outer loop
    vertex 10.499999999999998 17.905595371443166 161.73397811633544
    vertex 14.051848240020446 13.012789251905247 161.73397811633544
    vertex 17.72927059121162 14.358130480322355 161.73397811633544
  endloop
endfacet
facet normal 1.0192928587371256e-31 -2.819176004692449e-32 1.0
  outer loop
    vertex 10.499999999999998 17.905595371443166 161.73397811633544
    vertex 17.72927059121162 14.358130480322355 161.73397811633544
    vertex 31.5 17.90559537144317 161.73397811633544
  endloop
endfacet
facet normal 1.0192928587371256e-31 -2.819176004692449e-32 1.0
  outer loop
    vertex 31.5 17.90559537144317 161.73397811633544
    vertex 17.72927059121162 14.358130480322355 161.73397811633544
    vertex 21.629587746475803 14.705843376647932 161.73397811633544
  endloop
endfacet
facet normal 1.0192928587371256e-31 -2.819176004692449e-32 1.0
  outer loop
    vertex 31.5 17.90559537144317 161.73397811633544
    vertex 21.629587746475803 14.705843376647932 161.73397811633544
    vertex 25.486999537260612 14.032231881620122 161.73397811633544
  endloop
endfacet
facet normal 1.0192928587371256e-31 -2.819176004692449e-32 1.0
  outer loop
    vertex 31.5 17.90559537144317 161.73397811633544
    vertex 25.486999537260612 14.032231881620122 161.73397811633544
    vertex 29.038629724698446 12.383201505429442 161.73397811633544
  endloop
endfacet
facet normal 1.0192928587371256e-31 -2.819176004692449e-32 1.0
  outer loop
    vertex 31.5 17.90559537144317 161.73397811633544
    vertex 29.038629724698446 12.383201505429442 161.73397811633544
    vertex 29.71903130460893 11.814185391790149 161.73397811633544
  endloop
endfacet
facet normal 1.0192928587371256e-31 -2.819176004692449e-32 1.0
  outer loop
    vertex 31.5 17.90559537144317 161.73397811633544
    vertex 29.71903130460893 11.814185391790149 161.73397811633544
    vertex 32.04244058086181 9.871130943061743 161.73397811633544
  endloop
endfacet
facet normal 1.0192928587371256e-31 -2.819176004692449e-32 1.0
  outer loop
    vertex 31.5 17.90559537144317 161.73397811633544
    vertex 32.04244058086181 9.871130943061743 161.73397811633544
    vertex 35.01687719149703 11.814185391790149 161.73397811633544
  endloop
endfacet
facet normal 1.0192928587371256e-31 -2.819176004692449e-32 1.0
  outer loop
    vertex 35.01687719149703 11.814185391790149 161.73397811633544
    vertex 32.04244058086181 9.871130943061743 161.73397811633544
    vertex 34.29372735993532 6.667213651949487 161.73397811633544
  endloop
endfacet
facet normal 1.0192928587371256e-31 -2.819176004692449e-32 1.0
  outer loop
    vertex 35.01687719149703 11.814185391790149 161.73397811633544
    vertex 34.29372735993532 6.667213651949487 161.73397811633544
    vertex 35.63906858835242 2.9897913007583163 161.73397811633544
  endloop
endfacet
facet normal 1.0192928587371256e-31 -2.819176004692449e-32 1.0
  outer loop
    vertex 35.01687719149703 11.814185391790149 161.73397811633544
    vertex 35.63906858835242 2.9897913007583163 161.73397811633544
    vertex 42.0 -0.2809381080300699 161.73397811633544
  endloop
endfacet
facet normal 1.0192928587371256e-31 -2.819176004692449e-32 1.0
  outer loop
    vertex 42.0 -0.2809381080300699 161.73397811633544
    vertex 35.63906858835242 2.9897913007583163 161.73397811633544
    vertex 35.986781484678005 -0.9105258545058723 161.73397811633544
  endloop
endfacet
facet normal 0.8660254037844393 -0.4999999999999992 -2.2880894709784424e-16
  outer loop
    vertex 31.50000000000001 -18.46747158750325 29.733978116335443
    vertex 35.071796769724486 -12.280938108030071 161.73397811633544
    vertex 31.50000000000001 -18.46747158750336 161.73397811633544
  endloop
endfacet
facet normal 0.8660254037844393 -0.4999999999999992 -2.2880894709784424e-16
  outer loop
    vertex 35.071796769724486 -12.280938108030071 161.73397811633544
    vertex 31.50000000000001 -18.46747158750325 29.733978116335443
    vertex 35.071796769724486 -12.280938108030044 41.73397811633543
  endloop
endfacet
facet normal 0.8660254037844393 -0.4999999999999992 -2.2880894709784424e-16
  outer loop
    vertex 35.071796769724486 -12.280938108030044 41.73397811633543
    vertex 31.50000000000001 -18.46747158750325 29.733978116335443
    vertex 35.071796769724486 -12.280938108030027 29.733978116335454
  endloop
endfacet
facet normal 0.8660254037844393 -0.4999999999999992 -2.2880894709784424e-16
  outer loop
    vertex 35.071796769724486 -12.280938108030044 41.73397811633543
    vertex 42.0 -0.2809381080300699 161.73397811633544
    vertex 35.071796769724486 -12.280938108030071 161.73397811633544
  endloop
endfacet
facet normal 0.8660254037844393 -0.4999999999999992 -2.2880894709784424e-16
  outer loop
    vertex 42.0 -0.2809381080300699 161.73397811633544
    vertex 35.071796769724486 -12.280938108030044 41.73397811633543
    vertex 42.0 -0.2809381080300418 41.73397811633543
  endloop
endfacet
facet normal -0.8660254037844387 -0.49999999999999983 -2.2759518061594626e-16
  outer loop
    vertex 7.7012504034048755e-31 -0.28093810803007246 161.73397811633544
    vertex 6.928203230275516 -12.280938108030044 41.73397811633543
    vertex 6.928203230275516 -12.280938108030071 161.73397811633544
  endloop
endfacet
facet normal -0.8660254037844387 -0.49999999999999983 -2.2759518061594626e-16
  outer loop
    vertex 6.928203230275516 -12.280938108030044 41.73397811633543
    vertex 7.7012504034048755e-31 -0.28093810803007246 161.73397811633544
    vertex 0.0 -0.2809381080300444 41.73397811633543
  endloop
endfacet
facet normal -0.8660254037844387 -0.49999999999999983 -2.2759518061594626e-16
  outer loop
    vertex 6.928203230275516 -12.280938108030071 161.73397811633544
    vertex 10.500000000000016 -18.467471587503262 29.733978116335443
    vertex 10.500000000000016 -18.467471587503372 161.73397811633544
  endloop
endfacet
facet normal -0.8660254037844387 -0.49999999999999983 -2.2759518061594626e-16
  outer loop
    vertex 10.500000000000016 -18.467471587503262 29.733978116335443
    vertex 6.928203230275516 -12.280938108030071 161.73397811633544
    vertex 6.928203230275516 -12.280938108030044 41.73397811633543
  endloop
endfacet
facet normal -0.8660254037844387 -0.49999999999999983 -2.2759518061594626e-16
  outer loop
    vertex 10.500000000000016 -18.467471587503262 29.733978116335443
    vertex 6.928203230275516 -12.280938108030044 41.73397811633543
    vertex 6.928203230275516 -12.280938108030027 29.733978116335454
  endloop
endfacet
facet normal 5.371364728662664e-16 -1.0 -8.331719152982424e-16
  outer loop
    vertex 31.50000000000001 -18.46747158750325 29.733978116335443
    vertex 27.999999999999993 -18.467471587503244 32.49422980743324
    vertex 10.500000000000016 -18.467471587503262 29.733978116335443
  endloop
endfacet
facet normal 5.371364728662664e-16 -1.0 -8.331719152982424e-16
  outer loop
    vertex 27.999999999999993 -18.467471587503244 32.49422980743324
    vertex 31.50000000000001 -18.46747158750325 29.733978116335443
    vertex 31.50000000000001 -18.46747158750336 161.73397811633544
  endloop
endfacet
facet normal 5.371364728662664e-16 -1.0 -8.331719152982424e-16
  outer loop
    vertex 27.999999999999993 -18.467471587503244 32.49422980743324
    vertex 31.50000000000001 -18.46747158750336 161.73397811633544
    vertex 27.999999999999993 -18.46747158750325 37.426203568054454
  endloop
endfacet
facet normal 5.371364728662664e-16 -1.0 -8.331719152982424e-16
  outer loop
    vertex 27.999999999999993 -18.46747158750325 37.426203568054454
    vertex 31.50000000000001 -18.46747158750336 161.73397811633544
    vertex 14.999999999999998 -18.46747158750325 37.426203568054454
  endloop
endfacet
facet normal 5.371364728662664e-16 -1.0 -8.331719152982424e-16
  outer loop
    vertex 10.500000000000016 -18.467471587503262 29.733978116335443
    vertex 14.999999999999998 -18.46747158750325 32.49422980743324
    vertex 10.500000000000016 -18.467471587503372 161.73397811633544
  endloop
endfacet
facet normal 5.371364728662664e-16 -1.0 -8.331719152982424e-16
  outer loop
    vertex 14.999999999999998 -18.46747158750325 32.49422980743324
    vertex 10.500000000000016 -18.467471587503262 29.733978116335443
    vertex 27.999999999999993 -18.467471587503244 32.49422980743324
  endloop
endfacet
facet normal 5.371364728662664e-16 -1.0 -8.331719152982424e-16
  outer loop
    vertex 10.500000000000016 -18.467471587503372 161.73397811633544
    vertex 14.999999999999998 -18.46747158750325 32.49422980743324
    vertex 14.999999999999998 -18.46747158750325 37.426203568054454
  endloop
endfacet
facet normal 5.371364728662664e-16 -1.0 -8.331719152982424e-16
  outer loop
    vertex 10.500000000000016 -18.467471587503372 161.73397811633544
    vertex 14.999999999999998 -18.46747158750325 37.426203568054454
    vertex 31.50000000000001 -18.46747158750336 161.73397811633544
  endloop
endfacet
facet normal -0.8660254037844387 0.49999999999999983 7.649178371593326e-17
  outer loop
    vertex 6.983122808502972 11.814185391790149 161.73397811633544
    vertex 0.0 -0.2809381080300444 41.73397811633543
    vertex 7.7012504034048755e-31 -0.28093810803007246 161.73397811633544
  endloop
endfacet
facet normal -0.8660254037844387 0.49999999999999983 7.649178371593326e-17
  outer loop
    vertex 0.0 -0.2809381080300444 41.73397811633543
    vertex 6.983122808502972 11.814185391790149 161.73397811633544
    vertex 6.983122808502972 11.814185391790176 41.733978116335436
  endloop
endfacet
facet normal -0.8660254037844387 0.49999999999999983 7.649178371593326e-17
  outer loop
    vertex 6.983122808502972 11.814185391790176 41.733978116335436
    vertex 6.983122808502972 11.814185391790149 161.73397811633544
    vertex 10.499999999999998 17.905595371443166 161.73397811633544
  endloop
endfacet
facet normal -0.8660254037844387 0.49999999999999983 7.649178371593326e-17
  outer loop
    vertex 6.983122808502972 11.814185391790176 41.733978116335436
    vertex 10.499999999999998 17.905595371443166 161.73397811633544
    vertex 6.983122808502972 11.814185391790176 31.73397811633544
  endloop
endfacet
facet normal -0.8660254037844387 0.49999999999999983 7.649178371593326e-17
  outer loop
    vertex 6.983122808502972 11.814185391790176 31.73397811633544
    vertex 10.499999999999998 17.905595371443166 161.73397811633544
    vertex 10.499999999999998 17.905595371443166 31.73397811633544
  endloop
endfacet
facet normal 0.8660254037844387 0.4999999999999999 7.50558825507166e-17
  outer loop
    vertex 31.5 17.90559537144317 31.73397811633544
    vertex 35.01687719149703 11.814185391790176 41.733978116335436
    vertex 35.01687719149703 11.814185391790176 31.73397811633544
  endloop
endfacet
facet normal 0.8660254037844387 0.4999999999999999 7.50558825507166e-17
  outer loop
    vertex 42.0 -0.2809381080300418 41.73397811633543
    vertex 35.01687719149703 11.814185391790149 161.73397811633544
    vertex 42.0 -0.2809381080300699 161.73397811633544
  endloop
endfacet
facet normal 0.8660254037844387 0.4999999999999999 7.50558825507166e-17
  outer loop
    vertex 35.01687719149703 11.814185391790149 161.73397811633544
    vertex 42.0 -0.2809381080300418 41.73397811633543
    vertex 35.01687719149703 11.814185391790176 41.733978116335436
  endloop
endfacet
facet normal 0.8660254037844387 0.4999999999999999 7.50558825507166e-17
  outer loop
    vertex 35.01687719149703 11.814185391790149 161.73397811633544
    vertex 35.01687719149703 11.814185391790176 41.733978116335436
    vertex 31.5 17.90559537144317 161.73397811633544
  endloop
endfacet
facet normal 0.8660254037844387 0.4999999999999999 7.50558825507166e-17
  outer loop
    vertex 31.5 17.90559537144317 161.73397811633544
    vertex 35.01687719149703 11.814185391790176 41.733978116335436
    vertex 31.5 17.90559537144317 31.73397811633544
  endloop
endfacet
facet normal -2.685682364331331e-16 1.0 0.0
  outer loop
    vertex 10.499999999999998 17.905595371443166 161.73397811633544
    vertex 31.5 17.90559537144317 31.73397811633544
    vertex 10.499999999999998 17.905595371443166 31.73397811633544
  endloop
endfacet
facet normal -2.685682364331331e-16 1.0 0.0
  outer loop
    vertex 31.5 17.90559537144317 31.73397811633544
    vertex 10.499999999999998 17.905595371443166 161.73397811633544
    vertex 31.5 17.90559537144317 161.73397811633544
  endloop
endfacet
facet normal 6.7672898271046976e-31 1.0663005824243758e-30 1.0
  outer loop
    vertex 6.360931411647575 -3.5516675168184553 46.73397811633544
    vertex 6.686830010349808 4.206061429230542 46.73397811633544
    vertex 6.013218515322 0.3486496384457336 46.73397811633544
  endloop
endfacet
facet normal 6.7672898271046976e-31 1.0663005824243758e-30 1.0
  outer loop
    vertex 6.686830010349808 4.206061429230542 46.73397811633544
    vertex 6.360931411647575 -3.5516675168184553 46.73397811633544
    vertex 7.7062726400646815 -7.229089868009628 46.73397811633544
  endloop
endfacet
facet normal 6.7672898271046976e-31 1.0663005824243758e-30 1.0
  outer loop
    vertex 6.686830010349808 4.206061429230542 46.73397811633544
    vertex 7.7062726400646815 -7.229089868009628 46.73397811633544
    vertex 8.335860386540489 7.7576916166683745 46.73397811633544
  endloop
endfacet
facet normal 6.7672898271046976e-31 1.0663005824243758e-30 1.0
  outer loop
    vertex 8.335860386540489 7.7576916166683745 46.73397811633544
    vertex 7.7062726400646815 -7.229089868009628 46.73397811633544
    vertex 9.95755941913819 -10.43300715912188 46.73397811633544
  endloop
endfacet
facet normal 6.7672898271046976e-31 1.0663005824243758e-30 1.0
  outer loop
    vertex 8.335860386540489 7.7576916166683745 46.73397811633544
    vertex 9.95755941913819 -10.43300715912188 46.73397811633544
    vertex 10.847930948908191 10.761502472831737 46.73397811633544
  endloop
endfacet
facet normal 6.7672898271046976e-31 1.0663005824243758e-30 1.0
  outer loop
    vertex 10.847930948908191 10.761502472831737 46.73397811633544
    vertex 9.95755941913819 -10.43300715912188 46.73397811633544
    vertex 12.167224676526047 -12.280938108030071 46.73397811633544
  endloop
endfacet
facet normal 6.7672898271046976e-31 1.0663005824243758e-30 1.0
  outer loop
    vertex 10.847930948908191 10.761502472831737 46.73397811633544
    vertex 12.167224676526047 -12.280938108030071 46.73397811633544
    vertex 12.346055949001414 11.814185391790149 46.73397811633544
  endloop
endfacet
facet normal 6.7672898271046976e-31 1.0663005824243758e-30 1.0
  outer loop
    vertex 12.346055949001414 11.814185391790149 46.73397811633544
    vertex 12.167224676526047 -12.280938108030071 46.73397811633544
    vertex 12.961370275301553 -12.945077721489584 46.73397811633544
  endloop
endfacet
facet normal 6.7672898271046976e-31 1.0663005824243758e-30 1.0
  outer loop
    vertex 12.346055949001414 11.814185391790149 46.73397811633544
    vertex 12.961370275301553 -12.945077721489584 46.73397811633544
    vertex 14.051848240020446 13.012789251905247 46.73397811633544
  endloop
endfacet
facet normal 6.7672898271046976e-31 1.0663005824243758e-30 1.0
  outer loop
    vertex 14.051848240020446 13.012789251905247 46.73397811633544
    vertex 12.961370275301553 -12.945077721489584 46.73397811633544
    vertex 16.513000462739395 -14.594108097680268 46.73397811633544
  endloop
endfacet
facet normal 6.7672898271046976e-31 1.0663005824243758e-30 1.0
  outer loop
    vertex 14.051848240020446 13.012789251905247 46.73397811633544
    vertex 16.513000462739395 -14.594108097680268 46.73397811633544
    vertex 17.72927059121162 14.358130480322355 46.73397811633544
  endloop
endfacet
facet normal 6.7672898271046976e-31 1.0663005824243758e-30 1.0
  outer loop
    vertex 17.72927059121162 14.358130480322355 46.73397811633544
    vertex 16.513000462739395 -14.594108097680268 46.73397811633544
    vertex 20.3704122535242 -15.267719592708072 46.73397811633544
  endloop
endfacet
facet normal 6.7672898271046976e-31 1.0663005824243758e-30 1.0
  outer loop
    vertex 17.72927059121162 14.358130480322355 46.73397811633544
    vertex 20.3704122535242 -15.267719592708072 46.73397811633544
    vertex 21.629587746475803 14.705843376647932 46.73397811633544
  endloop
endfacet
facet normal 6.7672898271046976e-31 1.0663005824243758e-30 1.0
  outer loop
    vertex 21.629587746475803 14.705843376647932 46.73397811633544
    vertex 20.3704122535242 -15.267719592708072 46.73397811633544
    vertex 24.270729408788387 -14.920006696382496 46.73397811633544
  endloop
endfacet
facet normal 6.7672898271046976e-31 1.0663005824243758e-30 1.0
  outer loop
    vertex 21.629587746475803 14.705843376647932 46.73397811633544
    vertex 24.270729408788387 -14.920006696382496 46.73397811633544
    vertex 25.486999537260612 14.032231881620122 46.73397811633544
  endloop
endfacet
facet normal 6.7672898271046976e-31 1.0663005824243758e-30 1.0
  outer loop
    vertex 25.486999537260612 14.032231881620122 46.73397811633544
    vertex 24.270729408788387 -14.920006696382496 46.73397811633544
    vertex 27.948151759979567 -13.574665467965385 46.73397811633544
  endloop
endfacet
facet normal 6.7672898271046976e-31 1.0663005824243758e-30 1.0
  outer loop
    vertex 25.486999537260612 14.032231881620122 46.73397811633544
    vertex 27.948151759979567 -13.574665467965385 46.73397811633544
    vertex 29.038629724698446 12.383201505429442 46.73397811633544
  endloop
endfacet
facet normal 6.7672898271046976e-31 1.0663005824243758e-30 1.0
  outer loop
    vertex 29.038629724698446 12.383201505429442 46.73397811633544
    vertex 27.948151759979567 -13.574665467965385 46.73397811633544
    vertex 29.78931899687312 -12.280938108030071 46.73397811633544
  endloop
endfacet
facet normal 6.7672898271046976e-31 1.0663005824243758e-30 1.0
  outer loop
    vertex 29.038629724698446 12.383201505429442 46.73397811633544
    vertex 29.78931899687312 -12.280938108030071 46.73397811633544
    vertex 29.71903130460893 11.814185391790149 46.73397811633544
  endloop
endfacet
facet normal 6.7672898271046976e-31 1.0663005824243758e-30 1.0
  outer loop
    vertex 29.71903130460893 11.814185391790149 46.73397811633544
    vertex 29.78931899687312 -12.280938108030071 46.73397811633544
    vertex 32.04244058086181 9.871130943061743 46.73397811633544
  endloop
endfacet
facet normal 6.7672898271046976e-31 1.0663005824243758e-30 1.0
  outer loop
    vertex 32.04244058086181 9.871130943061743 46.73397811633544
    vertex 29.78931899687312 -12.280938108030071 46.73397811633544
    vertex 31.152069051091818 -11.323378688891879 46.73397811633544
  endloop
endfacet
facet normal 6.7672898271046976e-31 1.0663005824243758e-30 1.0
  outer loop
    vertex 32.04244058086181 9.871130943061743 46.73397811633544
    vertex 31.152069051091818 -11.323378688891879 46.73397811633544
    vertex 33.66413961345952 -8.319567832728518 46.73397811633544
  endloop
endfacet
facet normal 6.7672898271046976e-31 1.0663005824243758e-30 1.0
  outer loop
    vertex 32.04244058086181 9.871130943061743 46.73397811633544
    vertex 33.66413961345952 -8.319567832728518 46.73397811633544
    vertex 34.29372735993532 6.667213651949487 46.73397811633544
  endloop
endfacet
facet normal 6.7672898271046976e-31 1.0663005824243758e-30 1.0
  outer loop
    vertex 34.29372735993532 6.667213651949487 46.73397811633544
    vertex 33.66413961345952 -8.319567832728518 46.73397811633544
    vertex 35.3131699896502 -4.7679376452906785 46.73397811633544
  endloop
endfacet
facet normal 6.7672898271046976e-31 1.0663005824243758e-30 1.0
  outer loop
    vertex 34.29372735993532 6.667213651949487 46.73397811633544
    vertex 35.3131699896502 -4.7679376452906785 46.73397811633544
    vertex 35.63906858835242 2.9897913007583163 46.73397811633544
  endloop
endfacet
facet normal 6.7672898271046976e-31 1.0663005824243758e-30 1.0
  outer loop
    vertex 35.63906858835242 2.9897913007583163 46.73397811633544
    vertex 35.3131699896502 -4.7679376452906785 46.73397811633544
    vertex 35.986781484678005 -0.9105258545058723 46.73397811633544
  endloop
endfacet
facet normal 0.5749259314120667 -0.818205459154342 4.833839169407214e-31
  outer loop
    vertex 14.051848240020446 13.012789251905247 161.73397811633544
    vertex 12.346055949001414 11.814185391790149 46.73397811633544
    vertex 14.051848240020446 13.012789251905247 46.73397811633544
  endloop
endfacet
facet normal 0.5749259314120667 -0.818205459154342 4.833839169407214e-31
  outer loop
    vertex 12.346055949001414 11.814185391790149 46.73397811633544
    vertex 14.051848240020446 13.012789251905247 161.73397811633544
    vertex 12.346055949001414 11.814185391790149 161.73397811633544
  endloop
endfacet
facet normal 0.5749259314120674 -0.8182054591543417 4.833839169407207e-31
  outer loop
    vertex 12.346055949001414 11.814185391790149 161.73397811633544
    vertex 10.847930948908191 10.761502472831737 46.73397811633544
    vertex 12.346055949001414 11.814185391790149 46.73397811633544
  endloop
endfacet
facet normal 0.5749259314120674 -0.8182054591543417 4.833839169407207e-31
  outer loop
    vertex 10.847930948908191 10.761502472831737 46.73397811633544
    vertex 12.346055949001414 11.814185391790149 161.73397811633544
    vertex 10.847930948908191 10.761502472831737 161.73397811633544
  endloop
endfacet
facet normal 0.7671029609902094 -0.6415240036351357 1.6493661229026903e-31
  outer loop
    vertex 10.847930948908191 10.761502472831737 46.73397811633544
    vertex 8.335860386540489 7.7576916166683745 161.73397811633544
    vertex 8.335860386540489 7.7576916166683745 46.73397811633544
  endloop
endfacet
facet normal 0.7671029609902094 -0.6415240036351357 1.6493661229026903e-31
  outer loop
    vertex 8.335860386540489 7.7576916166683745 161.73397811633544
    vertex 10.847930948908191 10.761502472831737 46.73397811633544
    vertex 10.847930948908191 10.761502472831737 161.73397811633544
  endloop
endfacet
facet normal 0.9070031914744507 -0.42112374743673725 -1.647508499171258e-31
  outer loop
    vertex 8.335860386540489 7.7576916166683745 46.73397811633544
    vertex 6.686830010349808 4.206061429230542 161.73397811633544
    vertex 6.686830010349808 4.206061429230542 46.73397811633544
  endloop
endfacet
facet normal 0.9070031914744507 -0.42112374743673725 -1.647508499171258e-31
  outer loop
    vertex 6.686830010349808 4.206061429230542 161.73397811633544
    vertex 8.335860386540489 7.7576916166683745 46.73397811633544
    vertex 8.335860386540489 7.7576916166683745 161.73397811633544
  endloop
endfacet
facet normal 0.9850926533533524 -0.17202460379042273 -4.832108139663214e-31
  outer loop
    vertex 6.686830010349808 4.206061429230542 46.73397811633544
    vertex 6.013218515322 0.3486496384457336 161.73397811633544
    vertex 6.013218515322 0.3486496384457336 46.73397811633544
  endloop
endfacet
facet normal 0.9850926533533524 -0.17202460379042273 -4.832108139663214e-31
  outer loop
    vertex 6.013218515322 0.3486496384457336 161.73397811633544
    vertex 6.686830010349808 4.206061429230542 46.73397811633544
    vertex 6.686830010349808 4.206061429230542 161.73397811633544
  endloop
endfacet
facet normal 0.9960496788488045 0.08879773232010839 -7.687407595873368e-31
  outer loop
    vertex 6.013218515322 0.3486496384457336 46.73397811633544
    vertex 6.360931411647575 -3.5516675168184553 161.73397811633544
    vertex 6.360931411647575 -3.5516675168184553 46.73397811633544
  endloop
endfacet
facet normal 0.9960496788488045 0.08879773232010839 -7.687407595873368e-31
  outer loop
    vertex 6.360931411647575 -3.5516675168184553 161.73397811633544
    vertex 6.013218515322 0.3486496384457336 46.73397811633544
    vertex 6.013218515322 0.3486496384457336 161.73397811633544
  endloop
endfacet
facet normal 0.9391275647806325 0.343568649718217 -1.0018822928466495e-30
  outer loop
    vertex 6.360931411647575 -3.5516675168184553 46.73397811633544
    vertex 7.7062726400646815 -7.229089868009628 161.73397811633544
    vertex 7.7062726400646815 -7.229089868009628 46.73397811633544
  endloop
endfacet
facet normal 0.9391275647806325 0.343568649718217 -1.0018822928466495e-30
  outer loop
    vertex 7.7062726400646815 -7.229089868009628 161.73397811633544
    vertex 6.360931411647575 -3.5516675168184553 46.73397811633544
    vertex 6.360931411647575 -3.5516675168184553 161.73397811633544
  endloop
endfacet
facet normal 0.8182054591543417 0.5749259314120673 -1.1667472035372346e-30
  outer loop
    vertex 7.7062726400646815 -7.229089868009628 46.73397811633544
    vertex 9.95755941913819 -10.43300715912188 161.73397811633544
    vertex 9.95755941913819 -10.43300715912188 46.73397811633544
  endloop
endfacet
facet normal 0.8182054591543417 0.5749259314120673 -1.1667472035372346e-30
  outer loop
    vertex 9.95755941913819 -10.43300715912188 161.73397811633544
    vertex 7.7062726400646815 -7.229089868009628 46.73397811633544
    vertex 7.7062726400646815 -7.229089868009628 161.73397811633544
  endloop
endfacet
facet normal 0.6415240036351357 0.7671029609902094 -1.2521002204476767e-30
  outer loop
    vertex 9.95755941913819 -10.43300715912188 161.73397811633544
    vertex 12.167224676526047 -12.280938108030071 46.73397811633544
    vertex 9.95755941913819 -10.43300715912188 46.73397811633544
  endloop
endfacet
facet normal 0.6415240036351357 0.7671029609902094 -1.2521002204476767e-30
  outer loop
    vertex 12.167224676526047 -12.280938108030071 46.73397811633544
    vertex 9.95755941913819 -10.43300715912188 161.73397811633544
    vertex 12.167224676526047 -12.280938108030071 161.73397811633544
  endloop
endfacet
facet normal 0.6415240036351363 0.7671029609902087 -1.2521002204476761e-30
  outer loop
    vertex 12.167224676526047 -12.280938108030071 161.73397811633544
    vertex 12.961370275301553 -12.945077721489584 46.73397811633544
    vertex 12.167224676526047 -12.280938108030071 46.73397811633544
  endloop
endfacet
facet normal 0.6415240036351363 0.7671029609902087 -1.2521002204476761e-30
  outer loop
    vertex 12.961370275301553 -12.945077721489584 46.73397811633544
    vertex 12.167224676526047 -12.280938108030071 161.73397811633544
    vertex 12.961370275301553 -12.945077721489584 161.73397811633544
  endloop
endfacet
facet normal 0.4211237474367366 0.9070031914744511 -1.2521246765280583e-30
  outer loop
    vertex 12.961370275301553 -12.945077721489584 161.73397811633544
    vertex 16.513000462739395 -14.594108097680268 46.73397811633544
    vertex 12.961370275301553 -12.945077721489584 46.73397811633544
  endloop
endfacet
facet normal 0.4211237474367366 0.9070031914744511 -1.2521246765280583e-30
  outer loop
    vertex 16.513000462739395 -14.594108097680268 46.73397811633544
    vertex 12.961370275301553 -12.945077721489584 161.73397811633544
    vertex 16.513000462739395 -14.594108097680268 161.73397811633544
  endloop
endfacet
facet normal 0.17202460379042214 0.9850926533533525 -1.1668189051369175e-30
  outer loop
    vertex 16.513000462739395 -14.594108097680268 161.73397811633544
    vertex 20.3704122535242 -15.267719592708072 46.73397811633544
    vertex 16.513000462739395 -14.594108097680268 46.73397811633544
  endloop
endfacet
facet normal 0.17202460379042214 0.9850926533533525 -1.1668189051369175e-30
  outer loop
    vertex 20.3704122535242 -15.267719592708072 46.73397811633544
    vertex 16.513000462739395 -14.594108097680268 161.73397811633544
    vertex 20.3704122535242 -15.267719592708072 161.73397811633544
  endloop
endfacet
facet normal -0.0887977323201092 0.9960496788488045 -1.0019963536201084e-30
  outer loop
    vertex 20.3704122535242 -15.267719592708072 161.73397811633544
    vertex 24.270729408788387 -14.920006696382496 46.73397811633544
    vertex 20.3704122535242 -15.267719592708072 46.73397811633544
  endloop
endfacet
facet normal -0.0887977323201092 0.9960496788488045 -1.0019963536201084e-30
  outer loop
    vertex 24.270729408788387 -14.920006696382496 46.73397811633544
    vertex 20.3704122535242 -15.267719592708072 161.73397811633544
    vertex 24.270729408788387 -14.920006696382496 161.73397811633544
  endloop
endfacet
facet normal -0.3435686497182169 0.9391275647806325 -7.688894064813555e-31
  outer loop
    vertex 24.270729408788387 -14.920006696382496 161.73397811633544
    vertex 27.948151759979567 -13.574665467965385 46.73397811633544
    vertex 24.270729408788387 -14.920006696382496 46.73397811633544
  endloop
endfacet
facet normal -0.3435686497182169 0.9391275647806325 -7.688894064813555e-31
  outer loop
    vertex 27.948151759979567 -13.574665467965385 46.73397811633544
    vertex 24.270729408788387 -14.920006696382496 161.73397811633544
    vertex 27.948151759979567 -13.574665467965385 161.73397811633544
  endloop
endfacet
facet normal -0.5749259314120669 0.8182054591543418 -4.8338391694072124e-31
  outer loop
    vertex 27.948151759979567 -13.574665467965385 161.73397811633544
    vertex 29.78931899687312 -12.280938108030071 46.73397811633544
    vertex 27.948151759979567 -13.574665467965385 46.73397811633544
  endloop
endfacet
facet normal -0.5749259314120669 0.8182054591543418 -4.8338391694072124e-31
  outer loop
    vertex 29.78931899687312 -12.280938108030071 46.73397811633544
    vertex 27.948151759979567 -13.574665467965385 161.73397811633544
    vertex 29.78931899687312 -12.280938108030071 161.73397811633544
  endloop
endfacet
facet normal -0.5749259314120676 0.8182054591543415 -4.833839169407202e-31
  outer loop
    vertex 29.78931899687312 -12.280938108030071 161.73397811633544
    vertex 31.152069051091818 -11.323378688891879 46.73397811633544
    vertex 29.78931899687312 -12.280938108030071 46.73397811633544
  endloop
endfacet
facet normal -0.5749259314120676 0.8182054591543415 -4.833839169407202e-31
  outer loop
    vertex 31.152069051091818 -11.323378688891879 46.73397811633544
    vertex 29.78931899687312 -12.280938108030071 161.73397811633544
    vertex 31.152069051091818 -11.323378688891879 161.73397811633544
  endloop
endfacet
facet normal -0.7671029609902092 0.6415240036351356 -1.6493661229026888e-31
  outer loop
    vertex 33.66413961345952 -8.319567832728518 161.73397811633544
    vertex 31.152069051091818 -11.323378688891879 46.73397811633544
    vertex 31.152069051091818 -11.323378688891879 161.73397811633544
  endloop
endfacet
facet normal -0.7671029609902092 0.6415240036351356 -1.6493661229026888e-31
  outer loop
    vertex 31.152069051091818 -11.323378688891879 46.73397811633544
    vertex 33.66413961345952 -8.319567832728518 161.73397811633544
    vertex 33.66413961345952 -8.319567832728518 46.73397811633544
  endloop
endfacet
facet normal -0.9070031914744512 0.42112374743673625 1.647508499171272e-31
  outer loop
    vertex 35.3131699896502 -4.7679376452906785 161.73397811633544
    vertex 33.66413961345952 -8.319567832728518 46.73397811633544
    vertex 33.66413961345952 -8.319567832728518 161.73397811633544
  endloop
endfacet
facet normal -0.9070031914744512 0.42112374743673625 1.647508499171272e-31
  outer loop
    vertex 33.66413961345952 -8.319567832728518 46.73397811633544
    vertex 35.3131699896502 -4.7679376452906785 161.73397811633544
    vertex 35.3131699896502 -4.7679376452906785 46.73397811633544
  endloop
endfacet
facet normal -0.9850926533533525 0.17202460379042211 4.832108139663221e-31
  outer loop
    vertex 35.986781484678005 -0.9105258545058723 161.73397811633544
    vertex 35.3131699896502 -4.7679376452906785 46.73397811633544
    vertex 35.3131699896502 -4.7679376452906785 161.73397811633544
  endloop
endfacet
facet normal -0.9850926533533525 0.17202460379042211 4.832108139663221e-31
  outer loop
    vertex 35.3131699896502 -4.7679376452906785 46.73397811633544
    vertex 35.986781484678005 -0.9105258545058723 161.73397811633544
    vertex 35.986781484678005 -0.9105258545058723 46.73397811633544
  endloop
endfacet
facet normal -0.9960496788488045 -0.08879773232010983 7.687407595873385e-31
  outer loop
    vertex 35.63906858835242 2.9897913007583163 161.73397811633544
    vertex 35.986781484678005 -0.9105258545058723 46.73397811633544
    vertex 35.986781484678005 -0.9105258545058723 161.73397811633544
  endloop
endfacet
facet normal -0.9960496788488045 -0.08879773232010983 7.687407595873385e-31
  outer loop
    vertex 35.986781484678005 -0.9105258545058723 46.73397811633544
    vertex 35.63906858835242 2.9897913007583163 161.73397811633544
    vertex 35.63906858835242 2.9897913007583163 46.73397811633544
  endloop
endfacet
facet normal -0.9391275647806329 -0.3435686497182159 1.0018822928466484e-30
  outer loop
    vertex 34.29372735993532 6.667213651949487 161.73397811633544
    vertex 35.63906858835242 2.9897913007583163 46.73397811633544
    vertex 35.63906858835242 2.9897913007583163 161.73397811633544
  endloop
endfacet
facet normal -0.9391275647806329 -0.3435686497182159 1.0018822928466484e-30
  outer loop
    vertex 35.63906858835242 2.9897913007583163 46.73397811633544
    vertex 34.29372735993532 6.667213651949487 161.73397811633544
    vertex 34.29372735993532 6.667213651949487 46.73397811633544
  endloop
endfacet
facet normal -0.8182054591543413 -0.5749259314120678 1.1667472035372347e-30
  outer loop
    vertex 32.04244058086181 9.871130943061743 161.73397811633544
    vertex 34.29372735993532 6.667213651949487 46.73397811633544
    vertex 34.29372735993532 6.667213651949487 161.73397811633544
  endloop
endfacet
facet normal -0.8182054591543413 -0.5749259314120678 1.1667472035372347e-30
  outer loop
    vertex 34.29372735993532 6.667213651949487 46.73397811633544
    vertex 32.04244058086181 9.871130943061743 161.73397811633544
    vertex 32.04244058086181 9.871130943061743 46.73397811633544
  endloop
endfacet
facet normal -0.6415240036351357 -0.7671029609902091 1.2521002204476761e-30
  outer loop
    vertex 32.04244058086181 9.871130943061743 161.73397811633544
    vertex 29.71903130460893 11.814185391790149 46.73397811633544
    vertex 32.04244058086181 9.871130943061743 46.73397811633544
  endloop
endfacet
facet normal -0.6415240036351357 -0.7671029609902091 1.2521002204476761e-30
  outer loop
    vertex 29.71903130460893 11.814185391790149 46.73397811633544
    vertex 32.04244058086181 9.871130943061743 161.73397811633544
    vertex 29.71903130460893 11.814185391790149 161.73397811633544
  endloop
endfacet
facet normal -0.6415240036351342 -0.7671029609902107 1.252100220447677e-30
  outer loop
    vertex 29.71903130460893 11.814185391790149 161.73397811633544
    vertex 29.038629724698446 12.383201505429442 46.73397811633544
    vertex 29.71903130460893 11.814185391790149 46.73397811633544
  endloop
endfacet
facet normal -0.6415240036351342 -0.7671029609902107 1.252100220447677e-30
  outer loop
    vertex 29.038629724698446 12.383201505429442 46.73397811633544
    vertex 29.71903130460893 11.814185391790149 161.73397811633544
    vertex 29.038629724698446 12.383201505429442 161.73397811633544
  endloop
endfacet
facet normal -0.4211237474367372 -0.907003191474451 1.2521246765280586e-30
  outer loop
    vertex 29.038629724698446 12.383201505429442 161.73397811633544
    vertex 25.486999537260612 14.032231881620122 46.73397811633544
    vertex 29.038629724698446 12.383201505429442 46.73397811633544
  endloop
endfacet
facet normal -0.4211237474367372 -0.907003191474451 1.2521246765280586e-30
  outer loop
    vertex 25.486999537260612 14.032231881620122 46.73397811633544
    vertex 29.038629724698446 12.383201505429442 161.73397811633544
    vertex 25.486999537260612 14.032231881620122 161.73397811633544
  endloop
endfacet
facet normal -0.17202460379042342 -0.9850926533533523 1.1668189051369182e-30
  outer loop
    vertex 25.486999537260612 14.032231881620122 161.73397811633544
    vertex 21.629587746475803 14.705843376647932 46.73397811633544
    vertex 25.486999537260612 14.032231881620122 46.73397811633544
  endloop
endfacet
facet normal -0.17202460379042342 -0.9850926533533523 1.1668189051369182e-30
  outer loop
    vertex 21.629587746475803 14.705843376647932 46.73397811633544
    vertex 25.486999537260612 14.032231881620122 161.73397811633544
    vertex 21.629587746475803 14.705843376647932 161.73397811633544
  endloop
endfacet
facet normal 0.0887977323201092 -0.9960496788488045 1.0019963536201084e-30
  outer loop
    vertex 21.629587746475803 14.705843376647932 161.73397811633544
    vertex 17.72927059121162 14.358130480322355 46.73397811633544
    vertex 21.629587746475803 14.705843376647932 46.73397811633544
  endloop
endfacet
facet normal 0.0887977323201092 -0.9960496788488045 1.0019963536201084e-30
  outer loop
    vertex 17.72927059121162 14.358130480322355 46.73397811633544
    vertex 21.629587746475803 14.705843376647932 161.73397811633544
    vertex 17.72927059121162 14.358130480322355 161.73397811633544
  endloop
endfacet
facet normal 0.3435686497182176 -0.9391275647806323 7.688894064813547e-31
  outer loop
    vertex 17.72927059121162 14.358130480322355 161.73397811633544
    vertex 14.051848240020446 13.012789251905247 46.73397811633544
    vertex 17.72927059121162 14.358130480322355 46.73397811633544
  endloop
endfacet
facet normal 0.3435686497182176 -0.9391275647806323 7.688894064813547e-31
  outer loop
    vertex 14.051848240020446 13.012789251905247 46.73397811633544
    vertex 17.72927059121162 14.358130480322355 161.73397811633544
    vertex 14.051848240020446 13.012789251905247 161.73397811633544
  endloop
endfacet
facet normal -1.8262129912722292e-31 9.116467216752277e-16 -1.0
  outer loop
    vertex 35.071796769724486 -12.280938108030027 29.733978116335454
    vertex 10.500000000000016 -18.467471587503262 29.733978116335443
    vertex 6.928203230275516 -12.280938108030027 29.733978116335454
  endloop
endfacet
facet normal -1.8262129912722292e-31 9.116467216752277e-16 -1.0
  outer loop
    vertex 10.500000000000016 -18.467471587503262 29.733978116335443
    vertex 35.071796769724486 -12.280938108030027 29.733978116335454
    vertex 31.50000000000001 -18.46747158750325 29.733978116335443
  endloop
endfacet
facet normal -0.0 1.0 9.116467216752277e-16
  outer loop
    vertex 6.928203230275516 -12.280938108030044 41.73397811633543
    vertex 35.071796769724486 -12.280938108030027 29.733978116335454
    vertex 6.928203230275516 -12.280938108030027 29.733978116335454
  endloop
endfacet
facet normal -0.0 1.0 9.116467216752277e-16
  outer loop
    vertex 35.071796769724486 -12.280938108030027 29.733978116335454
    vertex 6.928203230275516 -12.280938108030044 41.73397811633543
    vertex 35.071796769724486 -12.280938108030044 41.73397811633543
  endloop
endfacet
facet normal 0.0 0.0 -1.0
  outer loop
    vertex 10.499999999999998 17.905595371443166 31.73397811633544
    vertex 35.01687719149703 11.814185391790176 31.73397811633544
    vertex 6.983122808502972 11.814185391790176 31.73397811633544
  endloop
endfacet
facet normal 0.0 0.0 -1.0
  outer loop
    vertex 35.01687719149703 11.814185391790176 31.73397811633544
    vertex 10.499999999999998 17.905595371443166 31.73397811633544
    vertex 31.5 17.90559537144317 31.73397811633544
  endloop
endfacet
facet normal -0.0 -1.0 -0.0
  outer loop
    vertex 35.01687719149703 11.814185391790176 41.733978116335436
    vertex 6.983122808502972 11.814185391790176 31.73397811633544
    vertex 35.01687719149703 11.814185391790176 31.73397811633544
  endloop
endfacet
facet normal -0.0 -1.0 -0.0
  outer loop
    vertex 6.983122808502972 11.814185391790176 31.73397811633544
    vertex 35.01687719149703 11.814185391790176 41.733978116335436
    vertex 6.983122808502972 11.814185391790176 41.733978116335436
  endloop
endfacet
facet normal 1.8222241160730133e-18 -0.8660254037844387 0.49999999999999983
  outer loop
    vertex 26.429506251941614 -18.467471587503255 31.01858780716196
    vertex 14.999999999999998 -23.589641637466443 22.146729035618097
    vertex 26.429506251941614 -23.589641637466443 22.146729035618097
  endloop
endfacet
facet normal 1.8222241160730133e-18 -0.8660254037844387 0.49999999999999983
  outer loop
    vertex 41.99999999999999 -12.280938108030044 41.73397811633543
    vertex 27.999999999999993 -24.328499857940145 20.86698905816772
    vertex 41.99999999999999 -24.328499857940145 20.86698905816772
  endloop
endfacet
facet normal 1.8222241160730133e-18 -0.8660254037844387 0.49999999999999983
  outer loop
    vertex 27.999999999999993 -24.328499857940145 20.86698905816772
    vertex 41.99999999999999 -12.280938108030044 41.73397811633543
    vertex 27.999999999999993 -18.467471587503244 31.01858780716197
  endloop
endfacet
facet normal 1.8222241160730133e-18 -0.8660254037844387 0.49999999999999983
  outer loop
    vertex 27.999999999999993 -18.467471587503244 31.01858780716197
    vertex 41.99999999999999 -12.280938108030044 41.73397811633543
    vertex 27.999999999999993 -17.828499857940145 32.12531930736542
  endloop
endfacet
facet normal 1.8222241160730133e-18 -0.8660254037844387 0.49999999999999983
  outer loop
    vertex 27.999999999999993 -17.828499857940145 32.12531930736542
    vertex 41.99999999999999 -12.280938108030044 41.73397811633543
    vertex 14.999999999999998 -17.828499857940145 32.12531930736542
  endloop
endfacet
facet normal 1.8222241160730133e-18 -0.8660254037844387 0.49999999999999983
  outer loop
    vertex 14.999999999999998 -23.589641637466443 22.146729035618097
    vertex 0.0 -24.328499857940145 20.86698905816772
    vertex 14.999999999999998 -24.328499857940145 20.86698905816772
  endloop
endfacet
facet normal 1.8222241160730133e-18 -0.8660254037844387 0.49999999999999983
  outer loop
    vertex 0.0 -24.328499857940145 20.86698905816772
    vertex 14.999999999999998 -23.589641637466443 22.146729035618097
    vertex 0.0 -12.280938108030044 41.73397811633543
  endloop
endfacet
facet normal 1.8222241160730133e-18 -0.8660254037844387 0.49999999999999983
  outer loop
    vertex 0.0 -12.280938108030044 41.73397811633543
    vertex 14.999999999999998 -23.589641637466443 22.146729035618097
    vertex 14.999999999999998 -18.46747158750325 31.018587807161968
  endloop
endfacet
facet normal 1.8222241160730133e-18 -0.8660254037844387 0.49999999999999983
  outer loop
    vertex 14.999999999999998 -18.46747158750325 31.018587807161968
    vertex 14.999999999999998 -23.589641637466443 22.146729035618097
    vertex 26.429506251941614 -18.467471587503255 31.01858780716196
  endloop
endfacet
facet normal 1.8222241160730133e-18 -0.8660254037844387 0.49999999999999983
  outer loop
    vertex 0.0 -12.280938108030044 41.73397811633543
    vertex 14.999999999999998 -18.46747158750325 31.018587807161968
    vertex 14.999999999999998 -17.828499857940145 32.12531930736542
  endloop
endfacet
facet normal 1.8222241160730133e-18 -0.8660254037844387 0.49999999999999983
  outer loop
    vertex 0.0 -12.280938108030044 41.73397811633543
    vertex 14.999999999999998 -17.828499857940145 32.12531930736542
    vertex 41.99999999999999 -12.280938108030044 41.73397811633543
  endloop
endfacet
facet normal 1.8222241160730133e-18 -0.8660254037844387 0.49999999999999983
  outer loop
    vertex 0.0 -12.280938108030044 41.73397811633543
    vertex 41.99999999999999 -12.280938108030044 41.73397811633543
    vertex 35.071796769724486 -12.280938108030044 41.73397811633543
  endloop
endfacet
facet normal 1.8222241160730133e-18 -0.8660254037844387 0.49999999999999983
  outer loop
    vertex 0.0 -12.280938108030044 41.73397811633543
    vertex 35.071796769724486 -12.280938108030044 41.73397811633543
    vertex 6.928203230275516 -12.280938108030044 41.73397811633543
  endloop
endfacet
facet normal 0.0 -0.8660254037844387 0.4999999999999999
  outer loop
    vertex 27.999999999999993 -24.75670308821566 36.125319307365416
    vertex 14.999999999999998 -31.25670308821566 24.866989058167714
    vertex 27.999999999999993 -31.25670308821566 24.866989058167714
  endloop
endfacet
facet normal 0.0 -0.8660254037844387 0.4999999999999999
  outer loop
    vertex 14.999999999999998 -31.25670308821566 24.866989058167714
    vertex 27.999999999999993 -24.75670308821566 36.125319307365416
    vertex 14.999999999999998 -24.75670308821566 36.125319307365416
  endloop
endfacet
facet normal -1.0 0.0 0.0
  outer loop
    vertex 14.999999999999998 -24.75670308821566 36.125319307365416
    vertex 14.999999999999998 -27.919768656388637 24.646729035618097
    vertex 14.999999999999998 -31.25670308821566 24.866989058167714
  endloop
endfacet
facet normal -1.0 0.0 0.0
  outer loop
    vertex 14.999999999999998 -27.919768656388637 24.646729035618097
    vertex 14.999999999999998 -24.75670308821566 36.125319307365416
    vertex 14.999999999999998 -22.797598606425446 33.51858780716196
  endloop
endfacet
facet normal -1.0 0.0 0.0
  outer loop
    vertex 14.999999999999998 -22.797598606425446 33.51858780716196
    vertex 14.999999999999998 -24.75670308821566 36.125319307365416
    vertex 14.999999999999998 -18.46747158750325 37.426203568054454
  endloop
endfacet
facet normal -1.0 0.0 0.0
  outer loop
    vertex 14.999999999999998 -22.797598606425446 33.51858780716196
    vertex 14.999999999999998 -18.46747158750325 37.426203568054454
    vertex 14.999999999999998 -18.46747158750325 31.018587807161968
  endloop
endfacet
facet normal -1.0 0.0 0.0
  outer loop
    vertex 14.999999999999998 -18.46747158750325 31.018587807161968
    vertex 14.999999999999998 -18.46747158750325 37.426203568054454
    vertex 14.999999999999998 -18.46747158750325 32.49422980743324
  endloop
endfacet
facet normal -1.0 0.0 0.0
  outer loop
    vertex 14.999999999999998 -23.589641637466443 22.146729035618097
    vertex 14.999999999999998 -24.328499857940145 20.86698905816772
    vertex 14.999999999999998 -27.919768656388637 24.646729035618097
  endloop
endfacet
facet normal -1.0 0.0 0.0
  outer loop
    vertex 14.999999999999998 -27.919768656388637 24.646729035618097
    vertex 14.999999999999998 -16.828499857940148 7.87660800140114
    vertex 14.999999999999998 -31.25670308821566 24.866989058167714
  endloop
endfacet
facet normal -1.0 0.0 0.0
  outer loop
    vertex 14.999999999999998 -16.828499857940148 7.87660800140114
    vertex 14.999999999999998 -27.919768656388637 24.646729035618097
    vertex 14.999999999999998 -24.328499857940145 20.86698905816772
  endloop
endfacet
facet normal 8.56727583859487e-18 0.4999999999999995 0.866025403784439
  outer loop
    vertex 26.429506251941614 -27.919768656388637 24.646729035618097
    vertex 14.999999999999998 -23.589641637466443 22.146729035618097
    vertex 14.999999999999998 -27.919768656388637 24.646729035618097
  endloop
endfacet
facet normal 8.56727583859487e-18 0.4999999999999995 0.866025403784439
  outer loop
    vertex 14.999999999999998 -23.589641637466443 22.146729035618097
    vertex 26.429506251941614 -27.919768656388637 24.646729035618097
    vertex 26.429506251941614 -23.589641637466443 22.146729035618097
  endloop
endfacet
facet normal 6.593915917747398e-17 0.8660254037844387 -0.5
  outer loop
    vertex 14.999999999999998 -22.797598606425446 33.51858780716196
    vertex 26.429506251941614 -27.919768656388637 24.646729035618097
    vertex 14.999999999999998 -27.919768656388637 24.646729035618097
  endloop
endfacet
facet normal 6.593915917747398e-17 0.8660254037844387 -0.5
  outer loop
    vertex 26.429506251941614 -27.919768656388637 24.646729035618097
    vertex 14.999999999999998 -22.797598606425446 33.51858780716196
    vertex 26.429506251941614 -22.797598606425446 33.518587807161964
  endloop
endfacet
facet normal -1.0 0.0 0.0
  outer loop
    vertex 14.999999999999998 -17.828499857940145 32.12531930736542
    vertex 14.999999999999998 -18.46747158750325 31.018587807161968
    vertex 14.999999999999998 -18.46747158750325 32.49422980743324
  endloop
endfacet
facet normal 7.938409849249621e-17 0.5000000000000001 0.8660254037844387
  outer loop
    vertex 27.999999999999993 -18.467471587503244 32.49422980743324
    vertex 14.999999999999998 -17.828499857940145 32.12531930736542
    vertex 14.999999999999998 -18.46747158750325 32.49422980743324
  endloop
endfacet
facet normal 7.938409849249621e-17 0.5000000000000001 0.8660254037844387
  outer loop
    vertex 14.999999999999998 -17.828499857940145 32.12531930736542
    vertex 27.999999999999993 -18.467471587503244 32.49422980743324
    vertex 27.999999999999993 -17.828499857940145 32.12531930736542
  endloop
endfacet
facet normal 1.0 -0.0 -0.0
  outer loop
    vertex 27.999999999999993 -24.328499857940145 20.86698905816772
    vertex 27.999999999999993 -18.46747158750325 37.426203568054454
    vertex 27.999999999999993 -24.75670308821566 36.125319307365416
  endloop
endfacet
facet normal 1.0 -0.0 -0.0
  outer loop
    vertex 27.999999999999993 -18.46747158750325 37.426203568054454
    vertex 27.999999999999993 -24.328499857940145 20.86698905816772
    vertex 27.999999999999993 -18.467471587503244 31.01858780716197
  endloop
endfacet
facet normal 1.0 -0.0 -0.0
  outer loop
    vertex 27.999999999999993 -18.46747158750325 37.426203568054454
    vertex 27.999999999999993 -18.467471587503244 31.01858780716197
    vertex 27.999999999999993 -18.467471587503244 32.49422980743324
  endloop
endfacet
facet normal 1.0 -0.0 -0.0
  outer loop
    vertex 27.999999999999993 -31.25670308821566 24.866989058167714
    vertex 27.999999999999993 -24.328499857940145 20.86698905816772
    vertex 27.999999999999993 -24.75670308821566 36.125319307365416
  endloop
endfacet
facet normal 1.0 -0.0 -0.0
  outer loop
    vertex 27.999999999999993 -24.328499857940145 20.86698905816772
    vertex 27.999999999999993 -31.25670308821566 24.866989058167714
    vertex 27.999999999999993 -16.828499857940148 7.87660800140114
  endloop
endfacet
facet normal -0.0 -0.20255542670302237 0.9792707996837017
  outer loop
    vertex 27.999999999999993 -24.75670308821566 36.125319307365416
    vertex 14.999999999999998 -18.46747158750325 37.426203568054454
    vertex 14.999999999999998 -24.75670308821566 36.125319307365416
  endloop
endfacet
facet normal -0.0 -0.20255542670302237 0.9792707996837017
  outer loop
    vertex 14.999999999999998 -18.46747158750325 37.426203568054454
    vertex 27.999999999999993 -24.75670308821566 36.125319307365416
    vertex 27.999999999999993 -18.46747158750325 37.426203568054454
  endloop
endfacet
facet normal 2.169204986575305e-16 -1.0 -5.71772401764098e-16
  outer loop
    vertex 27.999999999999993 -18.46747158750325 37.426203568054454
    vertex 14.999999999999998 -18.46747158750325 32.49422980743324
    vertex 27.999999999999993 -18.467471587503244 32.49422980743324
  endloop
endfacet
facet normal 2.169204986575305e-16 -1.0 -5.71772401764098e-16
  outer loop
    vertex 14.999999999999998 -18.46747158750325 32.49422980743324
    vertex 27.999999999999993 -18.46747158750325 37.426203568054454
    vertex 14.999999999999998 -18.46747158750325 37.426203568054454
  endloop
endfacet
facet normal -5.997093087016411e-17 -0.49999999999999933 -0.8660254037844393
  outer loop
    vertex 26.429506251941614 -18.467471587503255 31.01858780716196
    vertex 14.999999999999998 -22.797598606425446 33.51858780716196
    vertex 14.999999999999998 -18.46747158750325 31.018587807161968
  endloop
endfacet
facet normal -5.997093087016411e-17 -0.49999999999999933 -0.8660254037844393
  outer loop
    vertex 14.999999999999998 -22.797598606425446 33.51858780716196
    vertex 26.429506251941614 -18.467471587503255 31.01858780716196
    vertex 26.429506251941614 -22.797598606425446 33.518587807161964
  endloop
endfacet
facet normal -1.0 0.0 0.0
  outer loop
    vertex 26.429506251941614 -22.797598606425446 33.518587807161964
    vertex 26.429506251941614 -23.589641637466443 22.146729035618097
    vertex 26.429506251941614 -27.919768656388637 24.646729035618097
  endloop
endfacet
facet normal -1.0 0.0 0.0
  outer loop
    vertex 26.429506251941614 -23.589641637466443 22.146729035618097
    vertex 26.429506251941614 -22.797598606425446 33.518587807161964
    vertex 26.429506251941614 -18.467471587503255 31.01858780716196
  endloop
endfacet
facet normal 2.8003227829066537e-18 -0.8660254037844387 -0.49999999999999983
  outer loop
    vertex 41.99999999999999 -12.280938108030039 -2.797935494402992e-15
    vertex 27.999999999999993 -16.828499857940148 7.87660800140114
    vertex 0.0 -12.280938108030039 -2.797935494402992e-15
  endloop
endfacet
facet normal 2.8003227829066537e-18 -0.8660254037844387 -0.49999999999999983
  outer loop
    vertex 27.999999999999993 -16.828499857940148 7.87660800140114
    vertex 41.99999999999999 -12.280938108030039 -2.797935494402992e-15
    vertex 41.99999999999999 -24.328499857940145 20.86698905816772
  endloop
endfacet
facet normal 2.8003227829066537e-18 -0.8660254037844387 -0.49999999999999983
  outer loop
    vertex 27.999999999999993 -16.828499857940148 7.87660800140114
    vertex 41.99999999999999 -24.328499857940145 20.86698905816772
    vertex 27.999999999999993 -24.328499857940145 20.86698905816772
  endloop
endfacet
facet normal 2.8003227829066537e-18 -0.8660254037844387 -0.49999999999999983
  outer loop
    vertex 0.0 -12.280938108030039 -2.797935494402992e-15
    vertex 14.999999999999998 -16.828499857940148 7.87660800140114
    vertex 0.0 -24.328499857940145 20.86698905816772
  endloop
endfacet
facet normal 2.8003227829066537e-18 -0.8660254037844387 -0.49999999999999983
  outer loop
    vertex 14.999999999999998 -16.828499857940148 7.87660800140114
    vertex 0.0 -12.280938108030039 -2.797935494402992e-15
    vertex 27.999999999999993 -16.828499857940148 7.87660800140114
  endloop
endfacet
facet normal 2.8003227829066537e-18 -0.8660254037844387 -0.49999999999999983
  outer loop
    vertex 0.0 -24.328499857940145 20.86698905816772
    vertex 14.999999999999998 -16.828499857940148 7.87660800140114
    vertex 14.999999999999998 -24.328499857940145 20.86698905816772
  endloop
endfacet
facet normal 0.0 -0.7622407767217888 -0.647293595134823
  outer loop
    vertex 27.999999999999993 -31.25670308821566 24.866989058167714
    vertex 14.999999999999998 -16.828499857940148 7.87660800140114
    vertex 27.999999999999993 -16.828499857940148 7.87660800140114
  endloop
endfacet
facet normal 0.0 -0.7622407767217888 -0.647293595134823
  outer loop
    vertex 14.999999999999998 -16.828499857940148 7.87660800140114
    vertex 27.999999999999993 -31.25670308821566 24.866989058167714
    vertex 14.999999999999998 -31.25670308821566 24.866989058167714
  endloop
endfacet
facet normal 1.0 -0.0 -0.0
  outer loop
    vertex 27.999999999999993 -17.828499857940145 32.12531930736542
    vertex 27.999999999999993 -18.467471587503244 32.49422980743324
    vertex 27.999999999999993 -18.467471587503244 31.01858780716197
  endloop
endfacet
endsolid Untitled-5a076513
